<svg width="512" height="512" version="1.1" xmlns="http://www.w3.org/2000/svg" desc="Created with imagetracer.js version 1.2.6" ><path fill="rgb(0,0,0)" stroke="rgb(0,0,0)" stroke-width="1" opacity="0" d="M 0 0 L 512 0 L 512 512 L 0 512 L 0 0 Z M 382 7 L 363 11 L 350 16 L 326 31 Q 310 43 300 61 Q 292 73 288 90 L 286 100 L 286 108 L 285 109 L 286 134 L 291 154 Q 299 175 313 191 Q 327 206 347 216 L 365 223 L 388 227 L 404 227 L 405 226 L 413 226 L 423 224 Q 448 217 466 202 Q 482 188 493 169 L 501 150 L 505 131 L 505 103 L 502 88 Q 494 61 478 44 Q 462 24 437 14 L 410 7 L 382 7 Z M 182 78 L 162 82 L 149 87 Q 134 94 123 105 Q 100 126 93 164 L 93 188 L 96 203 Q 102 224 115 239 Q 127 253 144 262 L 140 264 L 125 268 L 105 277 L 75 297 L 64 297 L 53 302 L 43 314 Q 39 320 41 333 L 31 347 L 17 376 L 12 391 L 8 409 L 7 427 L 13 431 L 52 431 L 53 444 L 25 444 L 19 449 L 19 501 L 20 503 L 24 505 L 358 505 L 362 501 L 362 450 L 361 448 L 357 444 L 328 444 L 329 431 L 368 431 L 371 430 L 374 426 L 373 410 L 366 382 L 351 349 L 340 333 L 340 321 L 335 309 L 324 299 L 317 297 L 307 297 Q 292 285 275 276 L 237 262 L 255 250 Q 266 239 275 226 L 284 206 L 288 186 L 288 166 L 285 150 Q 279 129 267 115 Q 251 94 226 84 L 200 78 L 182 78 Z " /><path fill="rgb(0,0,0)" stroke="rgb(0,0,0)" stroke-width="1" opacity="0" d="M 383.5 24 L 407.5 24 L 421.5 27 L 432.5 31 Q 454.8 41.2 469 59.5 Q 479.4 72.6 485 90.5 L 488 104.5 L 488 128.5 Q 481.2 166.7 456.5 187 Q 444.6 197.6 428.5 204 L 410.5 209 L 388.5 210 L 371.5 207 L 349.5 198 Q 334 189 323 175.5 Q 310.9 161.1 305 140.5 L 302 123.5 L 302 109.5 L 305 92.5 L 313 72.5 Q 321.7 57.2 334.5 46 Q 345.7 36.3 360.5 30 L 383.5 24 Z M 393 44 L 391 45 L 387 50 L 387 59 L 377 62 L 366 69 L 362 75 L 358 85 Q 356 102 363 110 Q 369 117 379 121 L 402 126 L 412 130 Q 417 133 419 140 Q 420 147 417 151 Q 411 156 402 158 L 390 158 L 380 154 L 373 148 Q 372 139 367 136 L 358 137 L 354 143 L 355 150 L 362 162 Q 370 170 383 174 L 387 174 L 387 185 L 395 190 L 400 189 Q 406 185 404 174 Q 417 173 426 166 Q 433 160 436 151 L 436 136 L 430 124 Q 424 116 414 112 L 405 109 L 391 107 L 379 101 L 375 96 Q 374 87 377 84 L 382 79 L 393 75 Q 404 75 411 80 L 422 94 L 431 93 L 434 88 L 433 82 L 425 69 L 410 60 L 404 59 Q 405 50 402 46 L 399 44 L 393 44 Z " /><path fill="rgb(0,0,0)" stroke="rgb(0,0,0)" stroke-width="1" opacity="0" d="M 182.5 95 L 204.5 96 L 221.5 101 Q 240 109 252 123.5 Q 262.6 135.4 268 152.5 L 271 166.5 L 271 184.5 L 269 195.5 L 262 213.5 Q 253.2 229.2 239.5 240 Q 228.8 248.3 214.5 253 L 201.5 256 L 179.5 256 L 158.5 250 L 141.5 240 L 133 233 L 120 215.5 L 114 202.5 L 110 185.5 L 110 165.5 Q 116.5 131 139.5 113 L 159.5 101 L 182.5 95 Z " /><path fill="rgb(0,0,0)" stroke="rgb(0,0,0)" stroke-width="1" opacity="0" d="M 186.5 273 L 208.5 274 L 234.5 279 Q 257.5 285 275 296.5 L 106.5 297 L 106.5 296 Q 121.2 286.7 139.5 281 L 159.5 276 L 171.5 275 L 172.5 274 L 185.5 274 L 186.5 273 Z " /><path fill="rgb(0,0,0)" stroke="rgb(0,0,0)" stroke-width="1" opacity="0" d="M 66.5 314 L 313.5 314 L 320 317 L 323 322.5 L 323 330.5 L 322 331.5 L 322 340.5 L 320 350.5 L 320 359.5 L 318 369.5 L 318 378.5 L 317 379.5 L 317 388.5 L 316 389.5 L 311 444 L 70.5 444 Q 69.4 443.9 70 438.5 L 69 437.5 L 69 428.5 L 67 418.5 L 63 371.5 L 62 370.5 L 58 322.5 L 61 317 L 66.5 314 Z M 191 349 L 175 352 L 163 359 L 155 369 L 152 380 L 153 388 L 157 397 Q 165 409 183 412 L 198 412 L 203 411 L 217 404 Q 225 398 228 388 Q 230 373 224 366 Q 218 356 207 352 L 191 349 Z " /><path fill="rgb(0,0,0)" stroke="rgb(0,0,0)" stroke-width="1" opacity="0" d="M 43.5 360 L 45 363.5 L 45 372.5 L 46 373.5 L 49 410.5 L 50 414 L 25.5 414 L 25 411.5 Q 30.5 382 43.5 360 Z " /><path fill="rgb(0,0,0)" stroke="rgb(0,0,0)" stroke-width="1" opacity="0" d="M 337.5 361 Q 351.4 383.3 356 414 L 331.5 414 L 331 410.5 L 332 409.5 L 332 400.5 L 334 390.5 L 336 362.5 L 337.5 361 Z " /><path fill="rgb(0,0,0)" stroke="rgb(0,0,0)" stroke-width="1" opacity="0" d="M 183.5 367 L 197.5 367 Q 205.5 369.5 210 375.5 L 211 383.5 L 206.5 390 L 195.5 395 L 185.5 395 Q 176.9 393.1 172 387.5 Q 168.6 384.9 170 377.5 L 176.5 370 L 183.5 367 Z " /><path fill="rgb(0,0,0)" stroke="rgb(0,0,0)" stroke-width="1" opacity="0" d="M 36 461 L 344.5 461 L 345 461.5 L 345 488 L 36.5 488 L 36 487.5 L 36 461 Z " /><path fill="rgb(248,167,19)" stroke="rgb(248,167,19)" stroke-width="1" opacity="0.9411764705882353" d="M 106.5 276 L 105.5 278 L 106.5 276 Z " /><path fill="rgb(248,167,19)" stroke="rgb(248,167,19)" stroke-width="1" opacity="0.9411764705882353" d="M 101.5 279 L 114 290.5 L 112.5 293 L 106 296.5 L 120.5 297 L 135 311.5 Q 135.8 314.1 132.5 313 L 131.5 314 L 66.5 314 L 61 317 L 58 322.5 L 58 331.5 L 59 332.5 L 60 351.5 L 62 361.5 L 62 370.5 L 63 371.5 L 63 379.5 L 64 380.5 L 64 389.5 L 65 390.5 L 65 398.5 L 66 399.5 L 66 408.5 L 67 409.5 L 67 418.5 L 68 419.5 L 70 444 L 264.5 444 L 276 455.5 L 279 459.5 L 275.5 461 L 36 461 L 36 487.5 L 36.5 488 L 303.5 488 L 308.5 489 L 324 504.5 L 23.5 505 L 20 502.5 L 19 500.5 L 19 448.5 L 24.5 444 L 53 444 L 52 431 L 12.5 431 L 7 426.5 L 8 408.5 L 12 390.5 L 17 375.5 L 31 346.5 L 41 332.5 Q 39.4 320.4 43 313.5 L 52.5 302 L 63.5 297 L 74.5 297 L 97.5 281 L 98.5 282 L 101.5 279 Z M 44 360 L 31 388 L 25 412 L 26 414 L 50 414 L 49 411 L 46 374 L 45 373 L 45 364 L 44 360 Z " /><path fill="rgb(248,167,19)" stroke="rgb(248,167,19)" stroke-width="1" opacity="0.9411764705882353" d="M 175.5 352 L 187 367 L 183.5 366 L 172 373 Q 169 376.3 170 384.5 L 174.5 390 Q 180.7 396.8 195.5 395 L 205 392 L 205.5 390 L 207 390.5 Q 206.3 388.3 208.5 389 L 209.5 388 L 219.5 398 L 221.5 397 L 218 401.5 Q 218.8 403.8 216.5 403 L 205.5 410 L 197.5 412 L 183.5 412 Q 165.5 409 157 396.5 L 153 387.5 L 152 379.5 Q 154.2 366.2 162.5 359 L 175.5 352 Z " /><path fill="rgb(248,167,19)" stroke="rgb(248,167,19)" stroke-width="1" opacity="0.9411764705882353" d="M 210.5 384 L 211 385.5 L 209 386.5 L 210.5 384 Z " /><path fill="rgb(243,132,25)" stroke="rgb(243,132,25)" stroke-width="1" opacity="0.9411764705882353" d="M 175.5 79 L 179.5 80 L 184.5 79 L 199 94.5 L 197.5 94 L 192.5 95 L 189.5 94 L 187.5 95 L 185.5 95 L 183.5 94 L 179.5 96 Q 145.3 101.8 128 124.5 Q 117 137 112 155.5 L 110 165.5 L 110 185.5 Q 115.3 216.7 134.5 234 Q 148.4 247.6 169.5 254 L 179.5 256 L 201.5 256 Q 231.8 250.3 249 231.5 Q 265.4 214.9 271 187.5 L 271 185.5 L 272.5 169 L 287 183.5 L 287 186.5 L 286 189.5 L 287 191.5 L 285 194.5 L 286 197.5 Q 277.3 230.8 254.5 250 L 240.5 260 L 237 261 Q 235.7 264.3 240.5 263 L 272.5 275 Q 290.3 283.7 304.5 296 L 320.5 298 Q 328.9 301.1 334 307.5 Q 338.7 312.3 340 320.5 L 340 332.5 L 351 348.5 L 366 381.5 L 373 409.5 L 374 425.5 L 370.5 430 L 367.5 431 L 329 431 L 328 444 L 356.5 444 L 361 447.5 L 362 449.5 L 362 499.5 L 357.5 505 L 324.5 505 L 308.5 489 L 304 488.5 L 345 488 L 345 461 L 276.5 461 L 276.5 460 L 279 459.5 L 265 444.5 L 311 444 L 316 389.5 L 317 388.5 L 317 379.5 L 319 369.5 L 319 360.5 L 321 350.5 L 323 322.5 L 318.5 316 L 313.5 314 L 132 313.5 L 135 313 L 135 311.5 L 121 297.5 L 275 296.5 Q 258.9 286.1 238.5 280 L 216.5 275 L 186.5 273 L 185.5 274 L 164.5 275 L 142.5 280 L 125.5 286 L 114.5 292 L 103.5 280 L 102 279.5 L 104 279 L 104.5 277 L 105.5 278 L 108.5 275 L 144 261.5 Q 126.7 252.8 115 238.5 Q 102.3 223.7 96 202.5 L 93 186.5 L 93 163.5 L 95 152.5 L 101 135.5 L 110 119.5 L 121 106 L 136.5 94 L 148.5 87 L 158.5 83 L 171.5 80 L 173.5 80 L 175.5 79 Z M 336 361 L 334 391 L 332 401 L 332 410 L 331 411 L 332 414 L 356 414 L 352 395 L 339 363 L 336 361 Z " /><path fill="rgb(243,132,25)" stroke="rgb(243,132,25)" stroke-width="1" opacity="0.9411764705882353" d="M 99.5 280 L 98.5 282 L 99.5 280 Z " /><path fill="rgb(243,132,25)" stroke="rgb(243,132,25)" stroke-width="1" opacity="0.9411764705882353" d="M 181.5 350 Q 213.2 347.3 224 365.5 Q 229.8 372.2 228 386.5 Q 225.6 396.6 218.5 402 L 220.5 398 L 209.5 388 L 208 388.5 L 211 385.5 L 212 379.5 L 209 373 L 207 373 Q 208.1 370.3 205.5 371 L 201.5 368 L 193.5 366 L 191.5 367 L 189.5 367 Q 186.2 368.1 187 365.5 L 176 352.5 L 181.5 350 Z " /><path fill="rgb(243,132,25)" stroke="rgb(243,132,25)" stroke-width="1" opacity="0.9411764705882353" d="M 183.5 366 L 185 366.5 L 182.5 368 L 183.5 366 Z " /><path fill="rgb(238,85,33)" stroke="rgb(238,85,33)" stroke-width="1" opacity="0.9333333333333333" d="M 381.5 7 L 409.5 7 L 436.5 14 Q 461.5 24.5 478 43.5 Q 494.1 61.4 502 87.5 L 505 102.5 L 505 130.5 L 501 149.5 L 493 168.5 Q 482.3 188.3 465.5 202 Q 449 216 425.5 223 L 403.5 227 L 387.5 227 L 386.5 226 L 378.5 226 L 368.5 224 L 353.5 219 Q 332.6 210.4 318 195.5 Q 318.8 193.3 316.5 194 Q 299.9 177.6 291 153.5 L 286 133.5 L 285 108.5 L 286 107.5 L 286 99.5 L 288 89.5 Q 292.3 73.3 300 60.5 Q 310.5 43.5 325.5 31 L 347.5 17 L 362.5 11 L 381.5 7 Z M 383 24 Q 353 29 335 46 Q 322 57 313 73 L 305 93 L 302 110 L 303 132 L 309 153 L 317 168 L 330 184 L 345 195 L 360 203 L 376 208 L 388 209 L 389 210 L 411 209 L 429 204 Q 445 198 457 187 Q 481 167 488 129 L 488 105 L 485 91 Q 479 73 469 60 Q 455 41 433 31 L 422 27 L 408 24 L 383 24 Z " /><path fill="rgb(238,85,33)" stroke="rgb(238,85,33)" stroke-width="1" opacity="0.9333333333333333" d="M 392.5 44 L 398.5 44 L 402 46 Q 405.3 50.1 404 59 Q 420.7 62.1 429 74.5 Q 433.5 79 434 87.5 L 430.5 93 L 421.5 94 L 409.5 79 L 398.5 75 L 392.5 75 L 381.5 79 L 377 83.5 Q 373.7 87.2 375 95.5 L 379.5 102 L 390.5 107 L 404.5 109 L 413.5 112 Q 423.6 115.9 430 123.5 Q 438.2 131.8 436 150.5 Q 432.9 160.4 425.5 166 Q 417.2 173 404 174 Q 405.8 185 399.5 189 L 395.5 190 L 391.5 189 L 387 184.5 L 387 174.5 L 383.5 174 Q 369.7 170.8 362 161.5 L 355 149.5 L 354 142.5 L 357.5 137 L 366.5 136 L 371 140.5 L 373 147.5 L 379.5 154 L 389.5 158 L 401.5 158 Q 411.2 156.2 417 150.5 Q 420.2 147.2 419 139.5 Q 417.4 132.6 411.5 130 L 401.5 126 Q 387.2 124.8 376.5 120 L 363 109.5 Q 355.8 101.7 358 84.5 L 362 74.5 L 366 69 L 376.5 62 L 387 59 L 387 49.5 L 390.5 45 L 392.5 44 Z " /><path fill="rgb(238,85,33)" stroke="rgb(238,85,33)" stroke-width="1" opacity="0.9333333333333333" d="M 181.5 78 L 206.5 79 L 227.5 85 Q 251.8 95.2 267 114.5 Q 278.2 127.8 284 146.5 L 288 165.5 L 288 185.5 L 287 185.5 L 287 183.5 L 272.5 169 L 271.5 180 L 271 166.5 L 268 152.5 L 263 139.5 L 254 125 Q 251.3 126.1 252 123.5 Q 240 109 221.5 101 L 205.5 96 L 198.5 96 L 193 94.5 L 198 93.5 L 184.5 79 Q 180.5 79.8 181.5 78 Z " /><path fill="rgb(238,85,33)" stroke="rgb(238,85,33)" stroke-width="1" opacity="0.9333333333333333" d="M 176.5 79 L 180 79.5 L 176.5 80 L 176.5 79 Z " /><path fill="rgb(238,85,33)" stroke="rgb(238,85,33)" stroke-width="1" opacity="0.9333333333333333" d="M 189.5 94 L 192 94.5 L 189.5 95 L 189.5 94 Z " /><path fill="rgb(238,85,33)" stroke="rgb(238,85,33)" stroke-width="1" opacity="0.9333333333333333" d="M 286.5 187 L 287 189.5 L 286 189.5 L 286.5 187 Z " /><path fill="rgb(238,85,33)" stroke="rgb(238,85,33)" stroke-width="1" opacity="0.9333333333333333" d="M 248.5 231 L 245.5 235 L 248.5 231 Z " /></svg>