<?xml version="1.0" encoding="UTF-8"?>
<svg version="1.1" xmlns="http://www.w3.org/2000/svg" width="512" height="512">
<path d="M0 0 C0.67562988 -0.00554901 1.35125977 -0.01109802 2.04736328 -0.01681519 C4.23943614 -0.025128 6.42924903 0.0000483 8.62109375 0.03125 C9.3671286 0.03678894 10.11316345 0.04232788 10.88180542 0.04803467 C22.64333477 0.15088812 33.7793875 0.95737081 45.05859375 4.53125 C45.74614746 4.74555664 46.43370117 4.95986328 47.14208984 5.18066406 C72.13919298 13.22611258 92.04471459 28.80836484 109.05859375 48.53125 C110.22472073 49.86505537 111.39135989 51.19841317 112.55859375 52.53125 C113.10902344 53.16289063 113.65945312 53.79453125 114.2265625 54.4453125 C120.49228611 61.62813013 120.49228611 61.62813013 127.05859375 68.53125 C127.6928125 68.2425 128.32703125 67.95375 128.98046875 67.65625 C139.33388624 63.53776348 151.88453287 62.66706379 162.7265625 65.484375 C166.56667019 65.53839762 166.92354449 65.1828321 169.55859375 62.62890625 C170.74760674 61.30356692 171.91344731 59.95717064 173.05859375 58.59375 C173.67307373 57.89805908 174.28755371 57.20236816 174.9206543 56.4855957 C176.65333411 54.51713328 178.35803284 52.52744442 180.05859375 50.53125 C181.32827904 49.09273588 182.5987825 47.65494209 183.87109375 46.21875 C185.609443 44.21662139 187.33518943 42.20530097 189.05078125 40.18359375 C208.22469489 18.10971096 235.21287829 4.61736159 264.05859375 0.53125 C266.62181576 0.40684674 269.15893034 0.32088788 271.72265625 0.29296875 C272.43714935 0.284897 273.15164246 0.27682526 273.88778687 0.26850891 C275.38870883 0.25475714 276.88966089 0.24399569 278.390625 0.23608398 C279.92294501 0.22450022 281.45522272 0.20394872 282.98730469 0.17456055 C285.21186465 0.1319636 287.43523967 0.11573537 289.66015625 0.10546875 C290.3425235 0.08796066 291.02489075 0.07045258 291.72793579 0.05241394 C295.10057202 0.06780648 296.78560883 0.31980408 299.4855957 2.41113281 C302.64370671 6.6676959 301.66080777 11.4916695 301.05859375 16.53125 C295.23026221 48.09058599 278.20696892 76.57749054 251.93359375 95.28125 C248.96830376 97.31283276 245.94408154 99.23537866 242.89501953 101.13769531 C242.17613556 101.58638977 241.45725159 102.03508423 240.71658325 102.49737549 C240.16944672 102.83855408 239.62231018 103.17973267 239.05859375 103.53125 C239.64243206 103.53271656 240.22627037 103.53418312 240.82780075 103.53569412 C255.03287884 103.57274331 269.23772403 103.63173269 283.44260788 103.71515274 C290.312003 103.75496488 297.1812832 103.7873462 304.05078125 103.80224609 C310.67745372 103.81664015 317.30380646 103.85172632 323.930336 103.89955902 C326.46130533 103.91442194 328.99232548 103.92229381 331.52333832 103.92313385 C335.06249677 103.9254904 338.60066064 103.95246599 342.13964844 103.98535156 C343.71705307 103.97780602 343.71705307 103.97780602 345.32632446 103.97010803 C352.24613383 104.0699036 352.24613383 104.0699036 355.7086792 106.03607178 C357.65576229 109.63505462 357.61644685 113.00977166 357.57617188 117 C357.58668579 118.27870972 357.58668579 118.27870972 357.59741211 119.58325195 C357.61500943 122.3995832 357.60336335 125.21490864 357.58984375 128.03125 C357.59253817 129.98893425 357.59642017 131.9466172 357.60144043 133.90429688 C357.60733783 138.00664007 357.59876468 142.10863482 357.58007812 146.2109375 C357.5572885 151.47045628 357.57041028 156.72915864 357.59436798 161.98864746 C357.60881938 166.0309871 357.60422298 170.07313305 357.59385681 174.11547852 C357.59118771 176.05476986 357.59446572 177.99407877 357.60377502 179.93334961 C357.61392977 182.6435405 357.59845503 185.35240775 357.57617188 188.0625 C357.58831726 189.26579956 357.58831726 189.26579956 357.60070801 190.4934082 C357.51871074 195.87418636 357.14824046 196.44160329 353.05859375 200.53125 C349.09859375 200.53125 345.13859375 200.53125 341.05859375 200.53125 C341.05859375 219.01125 341.05859375 237.49125 341.05859375 256.53125 C345.29703125 256.45003906 349.53546875 256.36882812 353.90234375 256.28515625 C357.29893557 256.24008491 360.695442 256.20214548 364.09216309 256.16899872 C367.66883123 256.13215201 371.24432325 256.08298951 374.8203125 256.00317383 C378.26987714 255.92666875 381.71830737 255.88516942 385.1686554 255.8671093 C387.11424227 255.84802989 389.05937747 255.7934534 391.00427246 255.73817444 C396.82138712 255.7356128 400.98014571 255.77182628 405.51196289 259.66650391 C406.72020177 260.93037284 407.90375084 262.21841196 409.05859375 263.53125 C410.17539144 264.61878158 411.29883319 265.69954029 412.42944336 266.77270508 C413.52592024 267.86274245 414.61969971 268.95549905 415.7109375 270.05078125 C416.29653946 270.63542648 416.88214142 271.22007172 417.48548889 271.82243347 C418.70582709 273.04209827 419.92493215 274.2629981 421.14282227 275.48510742 C423.01269128 277.36039563 424.88792274 279.23020465 426.76367188 281.09960938 C427.95474836 282.29134565 429.14551515 283.48339155 430.3359375 284.67578125 C430.89627182 285.23409134 431.45660614 285.79240143 432.03392029 286.36763 C436.81107886 291.17404726 437.20734492 293.74116115 437.20576477 300.33761597 C437.20944146 301.15321303 437.21311815 301.96881008 437.21690625 302.8091222 C437.22796906 305.55748748 437.23179129 308.30581498 437.2355957 311.05419922 C437.2418583 313.01842368 437.24850491 314.98264694 437.25550842 316.9468689 C437.2729349 322.29395182 437.28347425 327.64102579 437.29171395 332.98813009 C437.29685964 336.32597224 437.3029355 339.66381159 437.30922508 343.00165176 C437.32828005 353.43689555 437.34251165 363.87213224 437.35083705 374.30739009 C437.36061761 386.36858093 437.38695727 398.42958864 437.42733794 410.49071491 C437.45745223 419.80369345 437.47230139 429.11661935 437.47561806 438.42964566 C437.47797353 443.99660489 437.48699858 449.56336855 437.51207924 455.13027573 C437.53528363 460.36531873 437.53962404 465.60003633 437.52931786 470.83511734 C437.52882055 472.75884328 437.53519793 474.68258482 437.5488739 476.60626221 C437.56647446 479.22820829 437.55954572 481.84897146 437.54634094 484.47091675 C437.56279481 485.61867783 437.56279481 485.61867783 437.57958108 486.789626 C437.54004975 490.03016684 437.39039599 492.08136178 435.44034642 494.72541964 C432.2898017 497.11414345 430.39000533 497.03246224 426.45556641 497.03461456 C425.79030693 497.04042833 425.12504745 497.04624209 424.4396286 497.05223203 C422.20027296 497.06688299 419.96200472 497.0529243 417.72265625 497.03918457 C416.10512734 497.04379151 414.4876026 497.05014302 412.87008667 497.05809355 C408.41731623 497.07483864 403.96488737 497.06651711 399.51211548 497.05414867 C394.7131312 497.04512162 389.91420686 497.05905623 385.11523438 497.07006836 C375.71093103 497.08788329 366.30675515 497.08400038 356.90244675 497.0724178 C349.26145122 497.06339543 341.6204915 497.06215428 333.97949219 497.06651306 C332.89324743 497.06712599 331.80700268 497.06773893 330.68784142 497.06837043 C328.48136646 497.06964929 326.27489152 497.07094615 324.0684166 497.0722608 C303.3634636 497.08367531 282.65858137 497.07053923 261.95363998 497.04905933 C244.17608912 497.03118757 226.39864273 497.03429143 208.62109375 497.05273438 C187.99177326 497.07412571 167.36251484 497.08257659 146.73318481 497.07028532 C144.53468832 497.06901108 142.33619182 497.0677536 140.13769531 497.06651306 C138.51501267 497.06558741 138.51501267 497.06558741 136.85954857 497.06464306 C129.22503549 497.06118494 121.59056168 497.06702843 113.95605469 497.07643127 C104.65598235 497.08763336 95.35604511 497.084649 86.05598831 497.0633083 C81.30816459 497.05277372 76.56056635 497.04871691 71.81274414 497.06190491 C67.4702103 497.07378498 63.12811191 497.06733922 58.78561783 497.0459947 C57.21098386 497.04150993 55.63631344 497.04383668 54.06170273 497.05349785 C51.92781266 497.06559072 49.79543121 497.05326212 47.66162109 497.03461456 C46.47450531 497.03396515 45.28738953 497.03331574 44.06430054 497.03264666 C40.44074335 496.42818335 39.25980003 495.41921995 37.05859375 492.53125 C36.57757568 490.07611084 36.57757568 490.07611084 36.60449219 487.30371094 C36.60479431 486.26293396 36.60509644 485.22215698 36.60540771 484.14984131 C36.62605286 483.03304993 36.646698 481.91625854 36.66796875 480.765625 C36.67362854 479.61709045 36.67928833 478.46855591 36.68511963 477.28521729 C36.70751044 473.61680426 36.75771433 469.94936783 36.80859375 466.28125 C36.82865514 463.79428494 36.84690653 461.30730457 36.86328125 458.8203125 C36.9073842 452.72362511 36.97432426 446.62750733 37.05859375 440.53125 C36.11534241 440.54013245 35.17209106 440.54901489 34.20025635 440.5581665 C25.31301914 440.63923691 16.42585691 440.69920787 7.53833389 440.73849869 C2.96908411 440.75937765 -1.59986727 440.78770071 -6.16894531 440.83300781 C-10.57801498 440.87645488 -14.98679755 440.90038478 -19.39606476 440.91075897 C-21.07862112 440.91815243 -22.76116168 440.93259017 -24.44359589 440.95417023 C-26.79965726 440.98319003 -29.15453098 440.98720675 -31.51074219 440.98535156 C-32.20701721 440.99973267 -32.90329224 441.01411377 -33.6206665 441.02893066 C-36.62500614 441.0033175 -38.59358499 440.76097415 -41.12173462 439.09121704 C-43.86861673 435.2268233 -43.48196768 431.72392875 -43.42242432 427.09075928 C-43.42584202 426.12362322 -43.42925972 425.15648716 -43.43278098 424.16004395 C-43.43938347 420.91075895 -43.41734416 417.66229517 -43.39550781 414.41308594 C-43.39437985 412.08740254 -43.39501219 409.76171772 -43.39727783 407.43603516 C-43.3984279 401.11403543 -43.37487096 394.79233781 -43.346982 388.47040844 C-43.32454538 382.53545666 -43.32049158 376.60051679 -43.31637451 370.66552833 C-43.30761991 358.9100998 -43.28099991 347.1547823 -43.24316406 335.39941406 C-43.20644821 323.98014888 -43.17813439 312.56091385 -43.16113281 301.14160156 C-43.16008192 300.4377215 -43.15903102 299.73384144 -43.15794829 299.00863168 C-43.15272814 295.47747359 -43.1476733 291.94631529 -43.14270067 288.41515684 C-43.10123351 259.12044964 -43.03048327 229.825851 -42.94140625 200.53125 C-43.76125 200.57765625 -44.58109375 200.6240625 -45.42578125 200.671875 C-46.5034375 200.70796875 -47.58109375 200.7440625 -48.69140625 200.78125 C-49.75875 200.82765625 -50.82609375 200.8740625 -51.92578125 200.921875 C-54.94140625 200.53125 -54.94140625 200.53125 -57.30028534 198.75280762 C-59.76997963 195.40962422 -59.49931774 192.05851304 -59.45898438 188.0625 C-59.46599365 187.21002686 -59.47300293 186.35755371 -59.48022461 185.47924805 C-59.49782193 182.6629168 -59.48617585 179.84759136 -59.47265625 177.03125 C-59.47535067 175.07356575 -59.47923267 173.1158828 -59.48425293 171.15820312 C-59.49015033 167.05585993 -59.48157718 162.95386518 -59.46289062 158.8515625 C-59.440101 153.59204372 -59.45322278 148.33334136 -59.47718048 143.07385254 C-59.49163188 139.0315129 -59.48703548 134.98936695 -59.47666931 130.94702148 C-59.47400021 129.00773014 -59.47727822 127.06842123 -59.48658752 125.12915039 C-59.49674227 122.4189595 -59.48126753 119.71009225 -59.45898438 117 C-59.4670813 116.19780029 -59.47517822 115.39560059 -59.48352051 114.5690918 C-59.43364087 111.29591861 -59.15455745 108.91228258 -57.54559326 106.03607178 C-53.42584115 103.65548518 -49.43472588 103.9612611 -44.75683594 103.98535156 C-43.72237335 103.97501389 -42.68791077 103.96467621 -41.62210083 103.95402527 C-38.20233678 103.92452407 -34.78316272 103.92309651 -31.36328125 103.921875 C-28.99244045 103.90689836 -26.6216101 103.89017231 -24.25079346 103.87176514 C-18.01024912 103.82802186 -11.76984553 103.80807691 -5.5291748 103.79302979 C0.83870796 103.77348398 7.20643815 103.7315111 13.57421875 103.69140625 C26.06896344 103.6160284 38.5636741 103.56578269 51.05859375 103.53125 C50.32253906 103.07016846 49.58648437 102.60908691 48.828125 102.1340332 C47.85230469 101.51874756 46.87648438 100.90346191 45.87109375 100.26953125 C44.90816406 99.66407471 43.94523437 99.05861816 42.953125 98.43481445 C38.39293824 95.43584548 34.21603479 92.05994224 30.05859375 88.53125 C29.16140625 87.78101562 28.26421875 87.03078125 27.33984375 86.2578125 C6.25280575 67.95473738 -8.05421566 40.53259088 -11.390625 12.796875 C-11.64988063 5.46619858 -11.64988063 5.46619858 -9.33984375 2.41772461 C-6.11514887 -0.11863709 -4.07560693 0.01482135 0 0 Z " fill="#000000" transform="translate(66.94140625,7.46875)"/>
<path d="M0 0 C121.44 0 242.88 0 368 0 C368 58.08 368 116.16 368 176 C246.56 176 125.12 176 0 176 C0 117.92 0 59.84 0 0 Z " fill="#010100" transform="translate(120,312)"/>
<path d="M0 0 C121.44 0 242.88 0 368 0 C368 58.08 368 116.16 368 176 C246.56 176 125.12 176 0 176 C0 117.92 0 59.84 0 0 Z M48 21 C47.1316048 23.62833842 47.1316048 23.62833842 46.9375 26.375 C45.80081891 34.07343105 42.91055124 38.89674351 36.77734375 43.78515625 C33.54292327 45.99593596 30.33327128 46.77848471 26.5078125 47.4140625 C25.61835938 47.56617188 24.72890625 47.71828125 23.8125 47.875 C22.97332031 47.99617188 22.13414062 48.11734375 21.26953125 48.2421875 C18.27251876 49.24291112 17.5861193 50.27855486 16 53 C15.54525152 56.15415445 15.54525152 56.15415445 15.61181641 59.70874023 C15.60655945 60.37428925 15.60130249 61.03983826 15.59588623 61.72555542 C15.58270971 63.92014207 15.59141635 66.11400003 15.6015625 68.30859375 C15.59954083 69.83789712 15.59662862 71.36719956 15.59286499 72.89649963 C15.58844464 76.10011991 15.59486229 79.30348903 15.60888672 82.50708008 C15.62596421 86.60730495 15.6161451 90.70694005 15.59816933 94.80714321 C15.58731118 97.96507686 15.59078734 101.12287149 15.5985527 104.2808094 C15.60054986 105.79223768 15.59811247 107.30367869 15.59111404 108.81509209 C15.58346741 110.93102138 15.5951478 113.04600602 15.61181641 115.16186523 C15.61420319 116.36447495 15.61658997 117.56708466 15.61904907 118.80613708 C16.04020417 122.3370686 16.80130591 124.22126374 19 127 C21.64464326 127.84134369 23.98212925 128.40702395 26.6875 128.875 C34.61283899 130.55935616 39.53880751 133.04944589 44.2890625 139.84375 C46.95413756 144.52201126 47.71355689 149.27389792 48.3125 154.58203125 C49.19619621 157.69003099 50.27760947 158.33321104 53 160 C55.1908319 160.44399532 55.1908319 160.44399532 57.55435848 160.37752342 C58.46840543 160.38534666 59.38245237 160.39316991 60.32419771 160.40123022 C61.32467325 160.39453805 62.32514879 160.38784589 63.35594177 160.38095093 C64.42163881 160.3856309 65.48733585 160.39031087 66.58532673 160.39513266 C70.16825658 160.40713057 73.75080732 160.39760644 77.33374023 160.38818359 C79.8976158 160.39224718 82.46148962 160.39758785 85.02536011 160.40411377 C91.27367975 160.41639469 97.52185824 160.41456742 103.7701798 160.40587585 C108.84823561 160.39910427 113.92626112 160.3981803 119.00432014 160.4014473 C120.08789571 160.40213684 120.08789571 160.40213684 121.19336169 160.40284032 C122.66082391 160.40379949 124.12828611 160.40477213 125.59574831 160.4057581 C139.36145729 160.414316 153.12710637 160.40447191 166.89280552 160.388357 C178.70566664 160.37495628 190.51843931 160.37727908 202.33129883 160.39111328 C216.04575989 160.40716693 229.76016842 160.413489 243.47463757 160.40427649 C244.9370464 160.40332084 246.39945524 160.40237772 247.86186409 160.4014473 C248.58141336 160.40098447 249.30096263 160.40052164 250.04231642 160.40004479 C255.11404873 160.39745404 260.18574774 160.40182778 265.2574749 160.40888596 C272.08400296 160.41817727 278.91033803 160.41156427 285.73685837 160.39420319 C288.24551045 160.39022923 290.75417657 160.39138784 293.2628231 160.39799118 C296.68109843 160.40616068 300.09883387 160.39594007 303.51707458 160.38095093 C305.01444181 160.39098918 305.01444181 160.39098918 306.54205889 160.40123022 C313.28570875 160.37091363 313.28570875 160.37091363 319 157 C320.03631774 153.87431932 320.03631774 153.87431932 320.4375 150.3125 C321.64356949 143.77681617 323.25478045 139.65483441 328 135 C328.47953125 134.51015625 328.9590625 134.0203125 329.453125 133.515625 C334.2248067 129.41872657 339.81121158 128.85587471 345.890625 127.96875 C349.09647724 127.29308521 349.09647724 127.29308521 350.67007446 124.86683655 C352.27182786 121.41403783 352.38063885 118.96338037 352.38818359 115.16186523 C352.39344055 114.4945639 352.39869751 113.82726257 352.40411377 113.13973999 C352.41726021 110.94578273 352.4085964 108.7525577 352.3984375 106.55859375 C352.40045955 105.02832399 352.40337209 103.49805517 352.40713501 101.9677887 C352.41155087 98.76594843 352.4051504 95.56435978 352.39111328 92.36254883 C352.37400708 88.26113368 352.38387592 84.16030689 352.40183067 80.05891323 C352.41267624 76.90102207 352.40921893 73.74327021 352.4014473 70.58537483 C352.39944817 69.07312004 352.40189449 67.56085255 352.40888596 66.04861259 C352.41651509 63.93498132 352.40487793 61.82230079 352.38818359 59.70874023 C352.38579681 58.50692612 352.38341003 57.305112 352.38095093 56.06687927 C351.96589746 52.72545446 351.3879139 51.33790809 349 49 C345.86339891 48.08264671 345.86339891 48.08264671 342.3125 47.625 C334.32113273 46.10754739 330.11761977 43.28170502 324.625 37.5 C322.33464014 33.97636945 321.25554452 30.65200497 320.61328125 26.5 C320.47277344 25.613125 320.33226562 24.72625 320.1875 23.8125 C320.07792969 22.97332031 319.96835937 22.13414062 319.85546875 21.26953125 C319.1611237 18.87314785 319.1611237 18.87314785 317.10129547 17.38280487 C312.57941699 15.36659079 308.42319084 15.57942347 303.52380371 15.60559082 C301.92397652 15.59645416 301.92397652 15.59645416 300.29182959 15.58713293 C296.71202347 15.57046162 293.13257143 15.57528474 289.55273438 15.58007812 C286.98870981 15.5727403 284.42468855 15.56415491 281.860672 15.55441284 C275.61584361 15.5344721 269.37114589 15.52881774 263.12628996 15.53060073 C258.05111604 15.53190832 252.97597108 15.52810439 247.90080261 15.52067566 C246.43897104 15.51857648 244.97713948 15.51647888 243.5153079 15.51438284 C242.78772447 15.51333931 242.06014104 15.51229578 241.31050962 15.51122063 C227.55148073 15.49232019 213.79250516 15.49336809 200.03346866 15.50018996 C187.44352046 15.50576751 174.85377562 15.48493073 162.26387495 15.45182949 C149.33746312 15.4181071 136.41114875 15.40292219 123.4846921 15.40754652 C116.22703948 15.40979241 108.9695749 15.40453059 101.71195984 15.37965393 C94.88943514 15.35646766 88.067404 15.35920563 81.24484825 15.37958145 C78.73780172 15.38300388 76.230727 15.3778498 73.72371864 15.36359787 C70.30737701 15.34551315 66.89249251 15.35807585 63.47619629 15.37854004 C61.97985224 15.35976327 61.97985224 15.35976327 60.45327902 15.34060717 C54.59288935 15.41613229 51.64051744 15.95198961 48 21 Z " fill="#549A37" transform="translate(120,312)"/>
<path d="M0 0 C44.88 0 89.76 0 136 0 C136 18.48 136 36.96 136 56 C119 56.0625 119 56.0625 113.68359375 56.02758789 C104.62220732 55.8668013 104.62220732 55.8668013 96.74609375 59.6953125 C95.4731546 61.10874749 94.22849922 62.54777337 93 64 C91.4047301 65.60986954 89.77898838 67.1855558 88.1522522 68.76359558 C85.7147899 71.13533259 83.31638895 73.54492336 80.91577148 75.95385742 C79.04590247 77.82914563 77.17067101 79.69895465 75.29492188 81.56835938 C74.10384539 82.76009565 72.9130786 83.95214155 71.72265625 85.14453125 C71.16232193 85.70284134 70.60198761 86.26115143 70.02467346 86.83638 C66.01639978 90.86920318 64.87946548 92.5827298 64.84178162 98.21377563 C64.8319928 99.31877914 64.82220398 100.42378265 64.81211853 101.56227112 C64.80636307 102.78002731 64.8006076 103.99778351 64.79467773 105.25244141 C64.78477814 106.5304512 64.77487854 107.808461 64.76467896 109.12519836 C64.73760125 112.63527845 64.71660724 116.14537201 64.69667697 119.65549898 C64.67483506 123.32173919 64.6474376 126.9879377 64.62062073 130.65414429 C64.57066952 137.59912607 64.52573972 144.54413097 64.48259836 151.48915803 C64.42402357 160.87221259 64.35772368 170.25521232 64.29184818 179.63821793 C64.18823552 194.4254417 64.09497165 209.21271236 64 224 C42.88 224 21.76 224 0 224 C0 150.08 0 76.16 0 0 Z " fill="#EDCB60" transform="translate(40,208)"/>
<path d="M0 0 C11.05557341 9.23158992 19.16405915 22.81942217 20.80737305 37.27246094 C21.90110794 54.46143123 17.27625162 68.89868052 6.3203125 82.375 C-3.57670957 93.1166257 -17.60705145 99.43592805 -32.0859375 100.44140625 C-47.48568742 101.05560406 -61.2818704 96.40594135 -73.1796875 86.4375 C-83.30626058 76.88958824 -90.67179768 63.21723664 -91.73046875 49.20703125 C-91.97255566 31.96393363 -87.81181412 17.01685795 -75.5859375 4.1796875 C-54.12785497 -15.64571484 -23.52938193 -17.55246498 0 0 Z " fill="#69BE47" transform="translate(339.4296875,355.8125)"/>
<path d="M0 0 C47.52 0 95.04 0 144 0 C144 21.12 144 42.24 144 64 C96.48 64 48.96 64 0 64 C0 42.88 0 21.76 0 0 Z " fill="#F2A845" transform="translate(264,128)"/>
<path d="M0 0 C47.52 0 95.04 0 144 0 C144 21.12 144 42.24 144 64 C96.48 64 48.96 64 0 64 C0 42.88 0 21.76 0 0 Z " fill="#EECC61" transform="translate(24,128)"/>
<path d="M0 0 C24.75 0 49.5 0 75 0 C69 7 69 7 66.125 10.0625 C59.30844828 18.04811732 54.34281784 27.80081558 52 38 C51.79761719 38.65355469 51.59523438 39.30710937 51.38671875 39.98046875 C46.41922677 57.45117183 50.82643358 76.26748198 59.14453125 91.875 C63.16894677 98.65296298 68.01222074 104.27314145 73.71484375 109.6875 C75 111 75 111 75 112 C50.25 112 25.5 112 0 112 C-1.65 108.04 -3.3 104.08 -5 100 C-11.86361267 89.32326918 -18.87720127 86.05116614 -31 81 C-31 64.5 -31 48 -31 31 C-27.04 29.35 -23.08 27.7 -19 26 C-8.32326918 19.13638733 -5.05116614 12.12279873 0 0 Z " fill="#F0F0F0" transform="translate(183,344)"/>
<path d="M0 0 C24.75 0 49.5 0 75 0 C76.65 3.96 78.3 7.92 80 12 C86.86361267 22.67673082 93.87720127 25.94883386 106 31 C106 47.5 106 64 106 81 C102.7 82.32 99.4 83.64 96 85 C84.45577824 91.15142102 79.03898658 99.88304027 75 112 C50.25 112 25.5 112 0 112 C6 105 6 105 8.9375 101.8125 C21.67427056 86.96410695 26.35297116 68.399057 25.20703125 49.23730469 C23.50766323 30.87290782 14.53607413 14.89359126 1.28515625 2.3125 C0 1 0 1 0 0 Z " fill="#CACACA" transform="translate(350,344)"/>
<path d="M0 0 C44.88 0 89.76 0 136 0 C136 18.48 136 36.96 136 56 C91.12 56 46.24 56 0 56 C0 37.52 0 19.04 0 0 Z " fill="#EECC61" transform="translate(256,208)"/>
<path d="M0 0 C1.27934178 -0.01827331 2.55868356 -0.03654662 3.87679327 -0.05537367 C7.40819323 -0.10436793 10.93757555 -0.09766524 14.4691956 -0.08124876 C18.28555862 -0.07321121 22.10139423 -0.11688292 25.9175415 -0.15353394 C33.3871871 -0.21659917 40.85613371 -0.2303242 48.32601412 -0.22497028 C54.40174863 -0.22104142 60.47726581 -0.23249006 66.55295944 -0.25474548 C68.30566671 -0.26104338 70.05837399 -0.26733618 71.81108129 -0.27362394 C72.6835789 -0.27675453 73.55607651 -0.27988511 74.45501344 -0.28311056 C90.94562853 -0.339781 107.43584304 -0.33667977 123.92651515 -0.31620258 C138.9899129 -0.29948853 154.05177801 -0.36190257 169.11481769 -0.46128398 C184.6021267 -0.5626666 200.08870281 -0.60797839 215.57634962 -0.5941329 C224.26333595 -0.5874144 232.94890693 -0.60289036 241.63560867 -0.67781067 C249.03390662 -0.74107783 256.43001427 -0.75141262 263.8284045 -0.6949119 C267.59878774 -0.66756206 271.36509728 -0.6635823 275.13515472 -0.72597885 C300.03223314 -1.11218589 300.03223314 -1.11218589 308.5126909 6.62930727 C316.09799194 14.68272037 316.09799194 14.68272037 316.09799194 17.18322754 C202.57799194 17.18322754 89.05799194 17.18322754 -27.90200806 17.18322754 C-25.92200806 14.87322754 -23.94200806 12.56322754 -21.90200806 10.18322754 C-20.86196292 8.89090832 -20.86196292 8.89090832 -19.80090678 7.57248163 C-13.75919168 0.65475381 -8.94797883 -0.12066249 0 0 Z " fill="#6AC047" transform="translate(159.90200805664063,278.8167724609375)"/>
<path d="M0 0 C26.75127258 -0.94912531 53.17048195 7.71616387 73 26.125 C75.02493456 28.06023947 77.01355093 30.02461749 79 32 C79.69867188 32.67289063 80.39734375 33.34578125 81.1171875 34.0390625 C84.64338488 37.47122795 87.9008252 41.09926982 91.109375 44.828125 C93.24141842 47.27733191 95.43279945 49.66704907 97.625 52.0625 C101.07169661 55.87448753 104.12955552 59.74063077 107 64 C106.61328125 64.4846875 106.2265625 64.969375 105.828125 65.46875 C100.58550703 72.21667412 97.07404553 78.70381787 95 87 C88.26431172 86.43604497 82.35806431 84.68750477 76 82.4375 C74.98905273 82.08107422 73.97810547 81.72464844 72.93652344 81.35742188 C46.07594052 71.65658298 24.19591427 55.11584832 10 30 C9.52691406 29.17886719 9.05382812 28.35773437 8.56640625 27.51171875 C5.81388486 22.40969311 3.93701909 17.13347875 2.1875 11.625 C1.96811768 10.9343042 1.74873535 10.2436084 1.52270508 9.53198242 C0.5013997 6.16625139 0 3.55408161 0 0 Z " fill="#D03F33" transform="translate(74,24)"/>
<path d="M0 0 C-1.40437751 23.40629189 -17.36417324 44.14065886 -33.75 59.625 C-45.35453828 69.82401967 -59.4536626 76.38830163 -73.9375 81.375 C-75.47760742 81.92607422 -75.47760742 81.92607422 -77.04882812 82.48828125 C-78.03173828 82.82988281 -79.01464844 83.17148438 -80.02734375 83.5234375 C-80.91156006 83.83200684 -81.79577637 84.14057617 -82.70678711 84.45849609 C-85 85 -85 85 -88 84 C-89.17578125 81.55859375 -89.17578125 81.55859375 -90.3125 78.4375 C-93.22914618 71.04924868 -97.16019025 65.39059362 -103 60 C-101.67143806 57.07356763 -100.20435823 54.9299237 -97.98828125 52.609375 C-97.39877686 51.98627441 -96.80927246 51.36317383 -96.2019043 50.72119141 C-95.57840088 50.07069824 -94.95489746 49.42020508 -94.3125 48.75 C-93.03289239 47.39934803 -91.75423481 46.04779534 -90.4765625 44.6953125 C-89.86844727 44.05239258 -89.26033203 43.40947266 -88.63378906 42.74707031 C-86.76582765 40.74959095 -84.9637485 38.70430512 -83.1875 36.625 C-61.75418206 12.00061735 -32.48235357 -0.73360397 0 0 Z " fill="#D03F33" transform="translate(350,24)"/>
<path d="M0 0 C21.12 0 42.24 0 64 0 C64 21.12 64 42.24 64 64 C42.88 64 21.76 64 0 64 C0 42.88 0 21.76 0 0 Z " fill="#D24034" transform="translate(184,128)"/>
<path d="M0 0 C31.68 0 63.36 0 96 0 C96 13.99269517 95.52721019 22.08072354 86 32 C78.45282274 38.58370782 70.88028455 40.13174774 61.07666016 40.11352539 C60.4125412 40.11367142 59.74842224 40.11381744 59.06417847 40.1139679 C56.88910551 40.11327634 54.71412032 40.10551973 52.5390625 40.09765625 C51.02306159 40.09578938 49.50706008 40.09436675 47.99105835 40.09336853 C44.01595369 40.08956456 40.04088602 40.07975253 36.0657959 40.06866455 C31.28830225 40.05659836 26.51079618 40.05203809 21.73329163 40.04621124 C14.48883542 40.03653952 7.24446025 40.01736818 0 40 C0 26.8 0 13.6 0 0 Z " fill="#EECB60" transform="translate(264,128)"/>
<path d="M0 0 C47.52 0 95.04 0 144 0 C144 7.92 144 15.84 144 24 C96.48 24 48.96 24 0 24 C0 16.08 0 8.16 0 0 Z " fill="#F3A845" transform="translate(24,168)"/>
<path d="M0 0 C21.78 0 43.56 0 66 0 C66 10.56 66 21.12 66 32 C63.36 32.66 60.72 33.32 58 34 C51.64407157 36.95879427 46.91458238 40.97413158 43.859375 47.3984375 C41.73438596 53.83135887 42.25009942 60.18812768 45.0625 66.3125 C47.64928378 70.97317077 50.74928883 73.83280344 55 77 C51.49399534 85.15645645 43.44167185 89.79078734 35.5546875 93.03515625 C28.4436305 95.72083068 22.54148681 96.24547335 15 96 C15.71035925 92.3789004 17.22715891 89.41248397 18.875 86.125 C26.91799524 68.74362327 27.54754239 48.97807591 21 31 C16.50993469 19.78344939 10.02020318 10.60599511 1.28515625 2.3125 C0 1 0 1 0 0 Z " fill="#F0F0F0" transform="translate(350,344)"/>
<path d="M0 0 C15.84 0 31.68 0 48 0 C48 18.48 48 36.96 48 56 C32.16 56 16.32 56 0 56 C0 37.52 0 19.04 0 0 Z " fill="#AA2B24" transform="translate(192,208)"/>
<path d="M0 0 C5.28 0 10.56 0 16 0 C16 3.3 16 6.6 16 10 C16.825 10.144375 17.65 10.28875 18.5 10.4375 C24.20598817 12.98481615 28.399122 17.86410291 31.234375 23.41796875 C32 26 32 26 32 32 C26.72 32 21.44 32 16 32 C15.01 30.02 14.02 28.04 13 26 C10.36341009 24.68982596 7.90603861 24.66738112 5 25 C2.25 26.25 2.25 26.25 1 29 C0.82376306 31.97840431 1.27877677 34.01894399 2 37 C5.40206708 39.26804472 7.55078081 39.46800813 11.5625 40.0625 C19.37327998 41.65538163 23.93684146 44.92420976 29 51 C32.55163951 56.64083922 32.93789932 62.49723138 32 69 C29.81784188 75.75014246 26.13546296 81.2802898 20 85 C18.02 85.495 18.02 85.495 16 86 C16 89.3 16 92.6 16 96 C10.72 96 5.44 96 0 96 C0 92.7 0 89.4 0 86 C-0.845625 85.835 -1.69125 85.67 -2.5625 85.5 C-8.61335548 82.8596267 -12.51778126 77.84495191 -14.9375 71.75 C-16 68 -16 68 -16 64 C-10.72 64 -5.44 64 0 64 C0.99 65.98 1.98 67.96 3 70 C5.84083641 71.42041821 7.85477278 71.31452272 11 71 C13.5 69.5 13.5 69.5 15 67 C15.50299316 62.89222251 15.32749345 61.49124017 13 58 C9.86601904 57.11879551 9.86601904 57.11879551 6.25 56.5625 C-3.11330476 54.69174798 -8.4762236 50.70996759 -14 43 C-16.54361047 37.02804498 -17.13652158 30.17233091 -15.41796875 23.86328125 C-12.88791598 17.98293029 -8.20894147 13.60692816 -3 10 C-2.01 10 -1.02 10 0 10 C0 6.7 0 3.4 0 0 Z " fill="#010200" transform="translate(296,352)"/>
<path d="M0 0 C9.85323976 9.66433408 16.04228804 22.418558 16.43115234 36.34179688 C16.47788658 52.6915907 11.18060655 66.95209332 -0.03515625 79.125 C-11.81965798 90.37064777 -26.80089942 95.40265419 -42.84350586 95.37084961 C-56.18062603 94.99851323 -69.32369485 89.15326163 -79 80 C-79 79.67 -79 79.34 -79 79 C-68.77 79 -58.54 79 -48 79 C-48 81.64 -48 84.28 -48 87 C-42.72 87 -37.44 87 -32 87 C-32 84.36 -32 81.72 -32 79 C-31.45472656 78.90203125 -30.90945313 78.8040625 -30.34765625 78.703125 C-21.83843147 77.01582573 -14.18109213 74.32157149 -8 68 C-4.01398706 61.92133026 -0.78468031 55.84308218 -0.68115234 48.4753418 C-0.66128265 47.39459885 -0.64141296 46.3138559 -0.62094116 45.20036316 C-0.60938995 44.0449855 -0.59783875 42.88960785 -0.5859375 41.69921875 C-0.56657135 40.50770706 -0.5472052 39.31619537 -0.5272522 38.08857727 C-0.46754104 34.28829068 -0.42110419 30.48797366 -0.375 26.6875 C-0.3368125 24.10871085 -0.29776032 21.52993435 -0.2578125 18.95117188 C-0.16184631 12.63422698 -0.07677384 6.31720572 0 0 Z " fill="#539837" transform="translate(344,361)"/>
<path d="M0 0 C5.55322486 3.81024187 10.0950162 9.0110438 12.140625 15.46875 C13.08092428 22.95450921 11.96583186 29.38789565 7.6640625 35.6015625 C3.09091908 41.26056646 -1.42482258 44.89423309 -8.75390625 45.84375 C-15.2884611 46.10677611 -20.59398678 45.51992154 -25.859375 41.46875 C-32.11615223 35.65347923 -35.91347348 29.72967199 -36.296875 21.03125 C-36.05994162 14.36066397 -34.36832796 10.10408679 -29.765625 5.26953125 C-21.0360648 -2.83441047 -11.14510397 -5.61264228 0 0 Z " fill="#030303" transform="translate(203.859375,378.53125)"/>
<path d="M0 0 C6.5050875 3.68360377 11.85008743 8.78804102 13.9453125 16.1015625 C14.98475537 23.59271976 13.73156741 29.97881134 9.50390625 36.234375 C4.79487933 42.15616755 -0.24777989 45.44326987 -7.79296875 46.4765625 C-14.0441096 46.75323817 -19.00785392 45.91069482 -24.0546875 42.1015625 C-30.31526273 36.29446958 -34.10904593 30.35658676 -34.4921875 21.6640625 C-34.25525412 14.99347647 -32.56364046 10.73689929 -27.9609375 5.90234375 C-19.7156089 -1.75206963 -10.78488932 -4.67199659 0 0 Z " fill="#020302" transform="translate(426.0546875,377.8984375)"/>
<path d="M0 0 C0.88171875 0.97259766 0.88171875 0.97259766 1.78125 1.96484375 C2.3484375 2.61582031 2.915625 3.26679688 3.5 3.9375 C4.0671875 4.58589844 4.634375 5.23429687 5.21875 5.90234375 C7.19385493 8.22828969 9.09380328 10.6172541 11 13 C-13.75 13 -38.5 13 -64 13 C-65.65 9.04 -67.3 5.08 -69 1 C-69.66 -0.32 -70.32 -1.64 -71 -3 C-62.33379958 -3.22341743 -53.66744746 -3.42489728 -45.000103 -3.59840012 C-40.97547302 -3.67965427 -36.95130484 -3.76845157 -32.92724609 -3.87451172 C-29.04362944 -3.97659234 -25.16005243 -4.05882675 -21.27570343 -4.12732697 C-19.7939903 -4.15694226 -18.31240215 -4.19370184 -16.83104706 -4.2377243 C-14.75540765 -4.29818565 -12.68077524 -4.33319724 -10.60449219 -4.36230469 C-8.83244415 -4.4022757 -8.83244415 -4.4022757 -7.02459717 -4.4430542 C-3.34904133 -3.90464516 -2.29738628 -2.84058948 0 0 Z " fill="#CBCBCB" transform="translate(247,443)"/>
<path d="M0 0 C5.50415497 4.43956533 8.98930093 10.58220374 10.6875 17.375 C-9.7725 17.375 -30.2325 17.375 -51.3125 17.375 C-47.81777393 6.89082179 -42.88453132 0.93499179 -33.3125 -4.625 C-22.58995372 -9.98627314 -9.46763022 -6.32373024 0 0 Z " fill="#F1A644" transform="translate(236.3125,94.625)"/>
<path d="M0 0 C1.80859375 1.63671875 1.80859375 1.63671875 3 3 C1.77864002 4.13347055 0.54750819 5.25641587 -0.6875 6.375 C-1.37199219 7.00148438 -2.05648437 7.62796875 -2.76171875 8.2734375 C-7.48672451 11.91820634 -11.89326553 12.28153458 -17.70703125 12.1953125 C-18.43242599 12.1924826 -19.15782074 12.18965271 -19.90519714 12.18673706 C-22.20780368 12.17559799 -24.51001227 12.15050566 -26.8125 12.125 C-28.37955165 12.11496206 -29.94660943 12.10583763 -31.51367188 12.09765625 C-35.34259978 12.0756793 -39.17123256 12.04119339 -43 12 C-40.46736921 5.0996844 -35.23439538 1.47827016 -28.984375 -2.1796875 C-19.6272276 -6.30784076 -8.85198853 -4.53987062 0 0 Z " fill="#EAC85F" transform="translate(232,92)"/>
<path d="M0 0 C2.0625 1.5625 2.0625 1.5625 3 4 C3.17821261 6.85140177 2.92914963 9.292848 2 12 C-0.93837168 14.85194898 -2.53597436 15 -6.625 15 C-10 14 -10 14 -12 11.875 C-13.30782688 8.11499772 -13.06090617 5.81926223 -12 2 C-8.81688665 -2.07438508 -4.54417813 -1.38635943 0 0 Z " fill="#529636" transform="translate(421,393)"/>
<path d="M0 0 C2.0625 1.5625 2.0625 1.5625 3 4 C3.17821261 6.85140177 2.92914963 9.292848 2 12 C-0.93837168 14.85194898 -2.53597436 15 -6.625 15 C-10 14 -10 14 -12 11.875 C-13.30782688 8.11499772 -13.06090617 5.81926223 -12 2 C-8.81688665 -2.07438508 -4.54417813 -1.38635943 0 0 Z " fill="#529636" transform="translate(197,393)"/>
<path d="M0 0 C0.35858439 3.85478218 0.2754818 5.57759458 -1.875 8.875 C-2.57625 9.57625 -3.2775 10.2775 -4 11 C-4.66 11 -5.32 11 -6 11 C-7.33521524 4.68807339 -7.33521524 4.68807339 -5.8125 1.5625 C-4 0 -4 0 0 0 Z " fill="#66B945" transform="translate(415,393)"/>
<path d="M0 0 C0.35858439 3.85478218 0.2754818 5.57759458 -1.875 8.875 C-2.57625 9.57625 -3.2775 10.2775 -4 11 C-4.66 11 -5.32 11 -6 11 C-7.33521524 4.68807339 -7.33521524 4.68807339 -5.8125 1.5625 C-4 0 -4 0 0 0 Z " fill="#66B945" transform="translate(191,393)"/>
</svg>
