<svg width="512" height="512" version="1.1" xmlns="http://www.w3.org/2000/svg" desc="Created with imagetracer.js version 1.2.6" ><path fill="rgb(0,0,0)" stroke="rgb(0,0,0)" stroke-width="1" opacity="0" d="M 0 0 L 512 0 L 512 512 L 0 512 L 0 0 Z M 448 16 L 448 32 L 468 32 L 393 108 L 323 40 L 316 41 L 225 132 L 171 80 L 164 81 L 51 194 L 62 205 L 168 100 L 222 152 L 229 151 L 320 60 L 390 128 L 397 127 L 480 45 L 480 64 L 496 64 L 496 22 L 495 20 L 491 16 L 448 16 Z M 382 152 L 380 153 L 376 158 L 376 283 L 377 285 L 382 288 L 419 288 L 421 287 L 424 283 L 424 158 L 423 156 L 419 152 L 382 152 Z M 238 168 L 236 169 L 232 174 L 232 283 L 233 285 L 238 288 L 275 288 L 277 287 L 280 283 L 280 174 L 279 172 L 275 168 L 238 168 Z M 310 192 L 308 193 L 304 198 L 304 283 L 305 285 L 310 288 L 347 288 L 349 287 L 352 283 L 352 198 L 351 196 L 347 192 L 310 192 Z M 166 224 L 164 225 L 160 230 L 160 283 L 161 285 L 166 288 L 203 288 L 205 287 L 208 283 L 208 230 L 207 228 L 203 224 L 166 224 Z M 454 292 L 447 294 L 393 322 Q 390 323 391 321 Q 382 308 364 304 Q 349 302 341 306 L 266 344 Q 257 345 253 343 L 196 313 L 180 308 L 168 307 L 167 306 L 150 306 L 149 307 L 142 307 L 132 309 Q 113 314 100 324 L 98 323 L 94 301 L 90 295 L 82 295 L 72 297 L 20 309 L 16 314 L 18 329 L 24 353 L 39 429 L 41 434 L 48 472 L 50 477 L 52 490 L 54 494 L 58 496 L 64 496 L 92 489 L 120 484 L 128 481 L 130 478 L 130 472 L 127 457 Q 141 456 152 452 L 168 452 L 178 454 L 195 455 L 196 456 L 205 456 L 206 457 L 259 462 L 260 463 L 268 463 L 269 464 L 294 463 L 311 458 L 321 453 L 488 341 Q 494 336 496 327 L 496 318 L 489 305 L 477 295 L 467 292 L 454 292 Z " /><path fill="rgb(186,182,169)" stroke="rgb(186,182,169)" stroke-width="1" opacity="1" d="M 392 168 L 407.5 168 L 408 168.5 L 408 272 L 392.5 272 L 392 271.5 L 392 168 Z " /><path fill="rgb(186,182,169)" stroke="rgb(186,182,169)" stroke-width="1" opacity="1" d="M 248 184 L 263.5 184 L 264 184.5 L 264 272 L 248.5 272 L 248 271.5 L 248 184 Z " /><path fill="rgb(186,182,169)" stroke="rgb(186,182,169)" stroke-width="1" opacity="1" d="M 320 208 L 335.5 208 L 336 208.5 L 336 272 L 320.5 272 L 320 271.5 L 320 208 Z " /><path fill="rgb(186,182,169)" stroke="rgb(186,182,169)" stroke-width="1" opacity="1" d="M 176 240 L 192 240 L 192 272 L 176 272 L 176 240 Z " /><path fill="rgb(186,182,169)" stroke="rgb(186,182,169)" stroke-width="1" opacity="1" d="M 455.5 308 Q 473.5 306.5 479 317.5 L 480 324.5 L 475.5 330 L 314.5 438 Q 304.9 444.4 291.5 447 L 286.5 448 L 269.5 448 L 268.5 447 L 241.5 445 L 240.5 444 L 223.5 443 L 222.5 442 L 214.5 442 L 213.5 441 L 205.5 441 L 204.5 440 L 196.5 440 L 195.5 439 L 187.5 439 L 177.5 437 L 150.5 436 L 123 442 L 104 347.5 L 102 342.5 Q 114.4 330.4 133.5 325 L 148.5 322 L 166.5 322 L 181.5 325 L 192.5 329 L 246.5 358 L 254.5 360 L 266.5 360 L 274.5 358 L 343.5 322 Q 350.4 318.4 362.5 320 Q 372.6 322.4 378 329.5 L 382 336.5 L 382 339.5 L 376.5 346 L 278.5 403 L 264.5 407 L 250.5 408 L 249.5 407 L 240.5 407 Q 237.6 404.4 231.5 405 L 157.5 387 L 156 388.5 L 153 402 L 240.5 423 L 264.5 423 L 274.5 421 L 294.5 413 L 385.5 359 L 392 353.5 Q 397 348.5 397 338.5 L 399.5 336 L 455.5 308 Z " /><path fill="rgb(0,0,0)" stroke="rgb(0,0,0)" stroke-width="1" opacity="0.9921568627450981" d="M 488.5 16 Q 493.3 16.3 495 19.5 L 496 23.5 L 495 23.5 L 492.5 18 L 488.5 17 L 488.5 16 Z " /><path fill="rgb(0,0,0)" stroke="rgb(0,0,0)" stroke-width="1" opacity="0.9921568627450981" d="M 468.5 32 L 392.5 109 L 324.5 42 L 317.5 41 L 223.5 133 L 172.5 82 L 165.5 81 L 51.5 194 L 163.5 81 L 170.5 80 L 224.5 132 L 315.5 41 L 322.5 40 L 392.5 108 L 468.5 32 Z " /><path fill="rgb(0,0,0)" stroke="rgb(0,0,0)" stroke-width="1" opacity="0.9921568627450981" d="M 479.5 43 L 396.5 127 L 389.5 128 L 319.5 60 L 228.5 151 L 221.5 152 L 167.5 100 L 62 204.5 L 168.5 99 L 219.5 150 L 226.5 151 L 320.5 59 L 387.5 126 L 394.5 127 L 479.5 43 Z " /><path fill="rgb(0,0,0)" stroke="rgb(0,0,0)" stroke-width="1" opacity="0.9921568627450981" d="M 381.5 152 L 384 152.5 L 378 155.5 L 376.5 160 L 376 157.5 L 379.5 153 L 381.5 152 Z " /><path fill="rgb(0,0,0)" stroke="rgb(0,0,0)" stroke-width="1" opacity="0.9921568627450981" d="M 416.5 152 Q 421.3 152.3 423 155.5 L 424 159.5 L 423 159.5 L 420.5 154 L 416.5 153 L 416.5 152 Z " /><path fill="rgb(0,0,0)" stroke="rgb(0,0,0)" stroke-width="1" opacity="0.9921568627450981" d="M 237.5 168 L 240 168.5 L 234 171.5 L 232.5 176 L 232 173.5 L 235.5 169 L 237.5 168 Z " /><path fill="rgb(0,0,0)" stroke="rgb(0,0,0)" stroke-width="1" opacity="0.9921568627450981" d="M 272.5 168 Q 277.3 168.3 279 171.5 L 280 175.5 L 279 175.5 L 276.5 170 L 272.5 169 L 272.5 168 Z " /><path fill="rgb(0,0,0)" stroke="rgb(0,0,0)" stroke-width="1" opacity="0.9921568627450981" d="M 309.5 192 L 312 192.5 L 306 195.5 L 304.5 200 L 304 197.5 L 307.5 193 L 309.5 192 Z " /><path fill="rgb(0,0,0)" stroke="rgb(0,0,0)" stroke-width="1" opacity="0.9921568627450981" d="M 344.5 192 Q 349.3 192.3 351 195.5 L 352 199.5 L 351 199.5 L 348.5 194 L 344.5 193 L 344.5 192 Z " /><path fill="rgb(0,0,0)" stroke="rgb(0,0,0)" stroke-width="1" opacity="0.9921568627450981" d="M 165.5 224 L 168 224.5 L 162 227.5 L 160.5 232 L 160 229.5 L 163.5 225 L 165.5 224 Z " /><path fill="rgb(0,0,0)" stroke="rgb(0,0,0)" stroke-width="1" opacity="0.9921568627450981" d="M 200.5 224 Q 205.3 224.3 207 227.5 L 208 231.5 L 207 231.5 L 204.5 226 L 200.5 225 L 200.5 224 Z " /><path fill="rgb(0,0,0)" stroke="rgb(0,0,0)" stroke-width="1" opacity="0.9921568627450981" d="M 160.5 280 L 163.5 286 L 168 287.5 L 165.5 288 L 161 284.5 L 160.5 280 Z " /><path fill="rgb(0,0,0)" stroke="rgb(0,0,0)" stroke-width="1" opacity="0.9921568627450981" d="M 207.5 280 L 208 282.5 L 204.5 287 L 200.5 288 L 200.5 287 L 206 284.5 L 207.5 280 Z " /><path fill="rgb(0,0,0)" stroke="rgb(0,0,0)" stroke-width="1" opacity="0.9921568627450981" d="M 232.5 280 L 235.5 286 L 240 287.5 L 237.5 288 L 233 284.5 L 232.5 280 Z " /><path fill="rgb(0,0,0)" stroke="rgb(0,0,0)" stroke-width="1" opacity="0.9921568627450981" d="M 279.5 280 L 280 282.5 L 276.5 287 L 272.5 288 L 272.5 287 L 278 284.5 L 279.5 280 Z " /><path fill="rgb(0,0,0)" stroke="rgb(0,0,0)" stroke-width="1" opacity="0.9921568627450981" d="M 304.5 280 L 307.5 286 L 312 287.5 L 309.5 288 L 305 284.5 L 304.5 280 Z " /><path fill="rgb(0,0,0)" stroke="rgb(0,0,0)" stroke-width="1" opacity="0.9921568627450981" d="M 351.5 280 L 352 282.5 L 348.5 287 L 344.5 288 L 344.5 287 L 350 284.5 L 351.5 280 Z " /><path fill="rgb(0,0,0)" stroke="rgb(0,0,0)" stroke-width="1" opacity="0.9921568627450981" d="M 376.5 280 L 379.5 286 L 384 287.5 L 381.5 288 L 377 284.5 L 376.5 280 Z " /><path fill="rgb(0,0,0)" stroke="rgb(0,0,0)" stroke-width="1" opacity="0.9921568627450981" d="M 423.5 280 L 424 282.5 L 420.5 287 L 416.5 288 L 416.5 287 L 422 284.5 L 423.5 280 Z " /><path fill="rgb(0,0,0)" stroke="rgb(0,0,0)" stroke-width="1" opacity="0.9921568627450981" d="M 453.5 292 L 457 292.5 L 453.5 293 L 453.5 292 Z " /><path fill="rgb(0,0,0)" stroke="rgb(0,0,0)" stroke-width="1" opacity="0.9921568627450981" d="M 463.5 292 L 467 292.5 L 463.5 293 L 463.5 292 Z " /><path fill="rgb(0,0,0)" stroke="rgb(0,0,0)" stroke-width="1" opacity="0.9921568627450981" d="M 449.5 293 L 452 293.5 L 449.5 294 L 449.5 293 Z " /><path fill="rgb(0,0,0)" stroke="rgb(0,0,0)" stroke-width="1" opacity="0.9921568627450981" d="M 446.5 294 L 448 294.5 L 427.5 305 L 428.5 303 L 446.5 294 Z " /><path fill="rgb(0,0,0)" stroke="rgb(0,0,0)" stroke-width="1" opacity="0.9921568627450981" d="M 88.5 295 L 93 298.5 L 89.5 296 L 88.5 295 Z " /><path fill="rgb(0,0,0)" stroke="rgb(0,0,0)" stroke-width="1" opacity="0.9921568627450981" d="M 475.5 295 L 478 296.5 L 476.5 296 L 475.5 295 Z " /><path fill="rgb(0,0,0)" stroke="rgb(0,0,0)" stroke-width="1" opacity="0.9921568627450981" d="M 76.5 296 L 79 296.5 L 76.5 297 L 76.5 296 Z " /><path fill="rgb(0,0,0)" stroke="rgb(0,0,0)" stroke-width="1" opacity="0.9921568627450981" d="M 71.5 297 L 74 297.5 L 71.5 298 L 71.5 297 Z " /><path fill="rgb(0,0,0)" stroke="rgb(0,0,0)" stroke-width="1" opacity="0.9921568627450981" d="M 481.5 298 L 483.5 301 L 481.5 298 Z " /><path fill="rgb(0,0,0)" stroke="rgb(0,0,0)" stroke-width="1" opacity="0.9921568627450981" d="M 62.5 299 L 65 299.5 L 62.5 300 L 62.5 299 Z " /><path fill="rgb(0,0,0)" stroke="rgb(0,0,0)" stroke-width="1" opacity="0.9921568627450981" d="M 57.5 300 L 60 300.5 L 57.5 301 L 57.5 300 Z " /><path fill="rgb(0,0,0)" stroke="rgb(0,0,0)" stroke-width="1" opacity="0.9921568627450981" d="M 53.5 301 L 56 301.5 L 53.5 302 L 53.5 301 Z " /><path fill="rgb(0,0,0)" stroke="rgb(0,0,0)" stroke-width="1" opacity="0.9921568627450981" d="M 485.5 301 L 488.5 305 L 485.5 301 Z " /><path fill="rgb(0,0,0)" stroke="rgb(0,0,0)" stroke-width="1" opacity="0.9921568627450981" d="M 48.5 302 L 51 302.5 L 48.5 303 L 48.5 302 Z " /><path fill="rgb(0,0,0)" stroke="rgb(0,0,0)" stroke-width="1" opacity="0.9921568627450981" d="M 39.5 304 L 42 304.5 L 39.5 305 L 39.5 304 Z " /><path fill="rgb(0,0,0)" stroke="rgb(0,0,0)" stroke-width="1" opacity="0.9921568627450981" d="M 94.5 304 L 95 306.5 L 94 306.5 L 94.5 304 Z " /><path fill="rgb(0,0,0)" stroke="rgb(0,0,0)" stroke-width="1" opacity="0.9921568627450981" d="M 347.5 304 L 351 304.5 L 347.5 305 L 347.5 304 Z " /><path fill="rgb(0,0,0)" stroke="rgb(0,0,0)" stroke-width="1" opacity="0.9921568627450981" d="M 361.5 304 L 364 304.5 L 361.5 305 L 361.5 304 Z " /><path fill="rgb(0,0,0)" stroke="rgb(0,0,0)" stroke-width="1" opacity="0.9921568627450981" d="M 34.5 305 L 37 305.5 L 34.5 306 L 34.5 305 Z " /><path fill="rgb(0,0,0)" stroke="rgb(0,0,0)" stroke-width="1" opacity="0.9921568627450981" d="M 343.5 305 L 346 305.5 L 343.5 306 L 343.5 305 Z " /><path fill="rgb(0,0,0)" stroke="rgb(0,0,0)" stroke-width="1" opacity="0.9921568627450981" d="M 149.5 306 L 167 306.5 L 149.5 307 L 149.5 306 Z " /><path fill="rgb(0,0,0)" stroke="rgb(0,0,0)" stroke-width="1" opacity="0.9921568627450981" d="M 340.5 306 L 342 306.5 L 338.5 308 L 338.5 307 L 340.5 306 Z " /><path fill="rgb(0,0,0)" stroke="rgb(0,0,0)" stroke-width="1" opacity="0.9921568627450981" d="M 489.5 306 L 491.5 309 L 489.5 306 Z " /><path fill="rgb(0,0,0)" stroke="rgb(0,0,0)" stroke-width="1" opacity="0.9921568627450981" d="M 25.5 307 L 28 307.5 L 25.5 308 L 25.5 307 Z " /><path fill="rgb(0,0,0)" stroke="rgb(0,0,0)" stroke-width="1" opacity="0.9921568627450981" d="M 141.5 307 L 144 307.5 L 141.5 308 L 141.5 307 Z " /><path fill="rgb(0,0,0)" stroke="rgb(0,0,0)" stroke-width="1" opacity="0.9921568627450981" d="M 171.5 307 L 174 307.5 L 171.5 308 L 171.5 307 Z " /><path fill="rgb(0,0,0)" stroke="rgb(0,0,0)" stroke-width="1" opacity="0.9921568627450981" d="M 372.5 307 L 376 308.5 L 374.5 309 L 372.5 307 Z " /><path fill="rgb(0,0,0)" stroke="rgb(0,0,0)" stroke-width="1" opacity="0.9921568627450981" d="M 135.5 308 L 138 308.5 L 135.5 309 L 135.5 308 Z " /><path fill="rgb(0,0,0)" stroke="rgb(0,0,0)" stroke-width="1" opacity="0.9921568627450981" d="M 177.5 308 L 180 308.5 L 177.5 309 L 177.5 308 Z " /><path fill="rgb(0,0,0)" stroke="rgb(0,0,0)" stroke-width="1" opacity="0.9921568627450981" d="M 19.5 309 L 17.5 312 L 19.5 309 Z " /><path fill="rgb(0,0,0)" stroke="rgb(0,0,0)" stroke-width="1" opacity="0.9921568627450981" d="M 131.5 309 L 134 309.5 L 131.5 310 L 131.5 309 Z " /><path fill="rgb(0,0,0)" stroke="rgb(0,0,0)" stroke-width="1" opacity="0.9921568627450981" d="M 181.5 309 L 184 309.5 L 181.5 310 L 181.5 309 Z " /><path fill="rgb(0,0,0)" stroke="rgb(0,0,0)" stroke-width="1" opacity="0.9921568627450981" d="M 377.5 309 L 378.5 311 L 377.5 309 Z " /><path fill="rgb(0,0,0)" stroke="rgb(0,0,0)" stroke-width="1" opacity="0.9921568627450981" d="M 380.5 311 L 381.5 313 L 380.5 311 Z " /><path fill="rgb(0,0,0)" stroke="rgb(0,0,0)" stroke-width="1" opacity="0.9921568627450981" d="M 328.5 312 L 327.5 314 L 311.5 322 L 312.5 320 L 328.5 312 Z " /><path fill="rgb(0,0,0)" stroke="rgb(0,0,0)" stroke-width="1" opacity="0.9921568627450981" d="M 16.5 313 L 17 318.5 L 16 318.5 L 16.5 313 Z " /><path fill="rgb(0,0,0)" stroke="rgb(0,0,0)" stroke-width="1" opacity="0.9921568627450981" d="M 96.5 313 L 97 315.5 L 96 315.5 L 96.5 313 Z " /><path fill="rgb(0,0,0)" stroke="rgb(0,0,0)" stroke-width="1" opacity="0.9921568627450981" d="M 194.5 313 L 198 314.5 L 196.5 315 L 194.5 313 Z " /><path fill="rgb(0,0,0)" stroke="rgb(0,0,0)" stroke-width="1" opacity="0.9921568627450981" d="M 383.5 313 L 391 322 L 401.5 317 L 400.5 319 L 391.5 323 L 383.5 313 Z " /><path fill="rgb(0,0,0)" stroke="rgb(0,0,0)" stroke-width="1" opacity="0.9921568627450981" d="M 495.5 317 L 496 326.5 L 495 326.5 L 495.5 317 Z " /><path fill="rgb(0,0,0)" stroke="rgb(0,0,0)" stroke-width="1" opacity="0.9921568627450981" d="M 97.5 318 L 98 320.5 L 97 320.5 L 97.5 318 Z " /><path fill="rgb(0,0,0)" stroke="rgb(0,0,0)" stroke-width="1" opacity="0.9921568627450981" d="M 105.5 320 L 104.5 322 L 105.5 320 Z " /><path fill="rgb(0,0,0)" stroke="rgb(0,0,0)" stroke-width="1" opacity="0.9921568627450981" d="M 17.5 321 L 18 323.5 L 17 323.5 L 17.5 321 Z " /><path fill="rgb(0,0,0)" stroke="rgb(0,0,0)" stroke-width="1" opacity="0.9921568627450981" d="M 211.5 321 L 221 326.5 L 219.5 326 L 212.5 323 L 211.5 321 Z " /><path fill="rgb(0,0,0)" stroke="rgb(0,0,0)" stroke-width="1" opacity="0.9921568627450981" d="M 102.5 322 L 101.5 324 L 98 325 L 98.5 323 L 100.5 323 L 102.5 322 Z " /><path fill="rgb(0,0,0)" stroke="rgb(0,0,0)" stroke-width="1" opacity="0.9921568627450981" d="M 18.5 326 L 19 328.5 L 18 328.5 L 18.5 326 Z " /><path fill="rgb(0,0,0)" stroke="rgb(0,0,0)" stroke-width="1" opacity="0.9921568627450981" d="M 494.5 329 L 495 330.5 L 487.5 341 L 490 337.5 L 494.5 329 Z " /><path fill="rgb(0,0,0)" stroke="rgb(0,0,0)" stroke-width="1" opacity="0.9921568627450981" d="M 228.5 330 L 236 334.5 L 234.5 334 Q 228.9 333.2 228.5 330 Z " /><path fill="rgb(0,0,0)" stroke="rgb(0,0,0)" stroke-width="1" opacity="0.9921568627450981" d="M 289.5 332 L 288.5 334 L 272.5 342 L 273.5 340 L 289.5 332 Z " /><path fill="rgb(0,0,0)" stroke="rgb(0,0,0)" stroke-width="1" opacity="0.9921568627450981" d="M 20.5 335 L 21 337.5 L 20 337.5 L 20.5 335 Z " /><path fill="rgb(0,0,0)" stroke="rgb(0,0,0)" stroke-width="1" opacity="0.9921568627450981" d="M 245.5 339 L 252 342.5 L 250.5 343 Q 245.9 341.8 245.5 339 Z " /><path fill="rgb(0,0,0)" stroke="rgb(0,0,0)" stroke-width="1" opacity="0.9921568627450981" d="M 21.5 340 L 22 342.5 L 21 342.5 L 21.5 340 Z " /><path fill="rgb(0,0,0)" stroke="rgb(0,0,0)" stroke-width="1" opacity="0.9921568627450981" d="M 485.5 341 L 484.5 343 L 485.5 341 Z " /><path fill="rgb(0,0,0)" stroke="rgb(0,0,0)" stroke-width="1" opacity="0.9921568627450981" d="M 482.5 343 L 480.5 346 L 456.5 362 L 458.5 359 L 482.5 343 Z " /><path fill="rgb(0,0,0)" stroke="rgb(0,0,0)" stroke-width="1" opacity="0.9921568627450981" d="M 258.5 344 L 264 344.5 L 258.5 345 L 258.5 344 Z " /><path fill="rgb(0,0,0)" stroke="rgb(0,0,0)" stroke-width="1" opacity="0.9921568627450981" d="M 22.5 345 L 23 347.5 L 22 347.5 L 22.5 345 Z " /><path fill="rgb(0,0,0)" stroke="rgb(0,0,0)" stroke-width="1" opacity="0.9921568627450981" d="M 24.5 354 L 25 356.5 L 24 356.5 L 24.5 354 Z " /><path fill="rgb(0,0,0)" stroke="rgb(0,0,0)" stroke-width="1" opacity="0.9921568627450981" d="M 25.5 359 L 26 361.5 L 25 361.5 L 25.5 359 Z " /><path fill="rgb(0,0,0)" stroke="rgb(0,0,0)" stroke-width="1" opacity="0.9921568627450981" d="M 454.5 362 L 453.5 364 L 454.5 362 Z " /><path fill="rgb(0,0,0)" stroke="rgb(0,0,0)" stroke-width="1" opacity="0.9921568627450981" d="M 26.5 364 L 27 366.5 L 26 366.5 L 26.5 364 Z " /><path fill="rgb(0,0,0)" stroke="rgb(0,0,0)" stroke-width="1" opacity="0.9921568627450981" d="M 451.5 364 L 450.5 366 L 451.5 364 Z " /><path fill="rgb(0,0,0)" stroke="rgb(0,0,0)" stroke-width="1" opacity="0.9921568627450981" d="M 448.5 366 L 447.5 368 L 448.5 366 Z " /><path fill="rgb(0,0,0)" stroke="rgb(0,0,0)" stroke-width="1" opacity="0.9921568627450981" d="M 445.5 368 L 444.5 370 L 445.5 368 Z " /><path fill="rgb(0,0,0)" stroke="rgb(0,0,0)" stroke-width="1" opacity="0.9921568627450981" d="M 27.5 369 L 28 371.5 L 27 371.5 L 27.5 369 Z " /><path fill="rgb(0,0,0)" stroke="rgb(0,0,0)" stroke-width="1" opacity="0.9921568627450981" d="M 442.5 370 L 441.5 372 L 442.5 370 Z " /><path fill="rgb(0,0,0)" stroke="rgb(0,0,0)" stroke-width="1" opacity="0.9921568627450981" d="M 439.5 372 L 438.5 374 L 439.5 372 Z " /><path fill="rgb(0,0,0)" stroke="rgb(0,0,0)" stroke-width="1" opacity="0.9921568627450981" d="M 436.5 374 L 435.5 376 L 436.5 374 Z " /><path fill="rgb(0,0,0)" stroke="rgb(0,0,0)" stroke-width="1" opacity="0.9921568627450981" d="M 433.5 376 L 432.5 378 L 433.5 376 Z " /><path fill="rgb(0,0,0)" stroke="rgb(0,0,0)" stroke-width="1" opacity="0.9921568627450981" d="M 29.5 378 L 30 380.5 L 29 380.5 L 29.5 378 Z " /><path fill="rgb(0,0,0)" stroke="rgb(0,0,0)" stroke-width="1" opacity="0.9921568627450981" d="M 430.5 378 L 429.5 380 L 430.5 378 Z " /><path fill="rgb(0,0,0)" stroke="rgb(0,0,0)" stroke-width="1" opacity="0.9921568627450981" d="M 427.5 380 L 426.5 382 L 427.5 380 Z " /><path fill="rgb(0,0,0)" stroke="rgb(0,0,0)" stroke-width="1" opacity="0.9921568627450981" d="M 424.5 382 L 423.5 384 L 424.5 382 Z " /><path fill="rgb(0,0,0)" stroke="rgb(0,0,0)" stroke-width="1" opacity="0.9921568627450981" d="M 30.5 383 L 31 385.5 L 30 385.5 L 30.5 383 Z " /><path fill="rgb(0,0,0)" stroke="rgb(0,0,0)" stroke-width="1" opacity="0.9921568627450981" d="M 421.5 384 L 420.5 386 L 421.5 384 Z " /><path fill="rgb(0,0,0)" stroke="rgb(0,0,0)" stroke-width="1" opacity="0.9921568627450981" d="M 418.5 386 L 417.5 388 L 418.5 386 Z " /><path fill="rgb(0,0,0)" stroke="rgb(0,0,0)" stroke-width="1" opacity="0.9921568627450981" d="M 31.5 388 L 32 390.5 L 31 390.5 L 31.5 388 Z " /><path fill="rgb(0,0,0)" stroke="rgb(0,0,0)" stroke-width="1" opacity="0.9921568627450981" d="M 415.5 388 L 414.5 390 L 415.5 388 Z " /><path fill="rgb(0,0,0)" stroke="rgb(0,0,0)" stroke-width="1" opacity="0.9921568627450981" d="M 412.5 390 L 410.5 393 L 380.5 413 L 382.5 410 L 412.5 390 Z " /><path fill="rgb(0,0,0)" stroke="rgb(0,0,0)" stroke-width="1" opacity="0.9921568627450981" d="M 33.5 397 L 34 399.5 L 33 399.5 L 33.5 397 Z " /><path fill="rgb(0,0,0)" stroke="rgb(0,0,0)" stroke-width="1" opacity="0.9921568627450981" d="M 34.5 402 L 35 404.5 L 34 404.5 L 34.5 402 Z " /><path fill="rgb(0,0,0)" stroke="rgb(0,0,0)" stroke-width="1" opacity="0.9921568627450981" d="M 35.5 407 L 36 409.5 L 35 409.5 L 35.5 407 Z " /><path fill="rgb(0,0,0)" stroke="rgb(0,0,0)" stroke-width="1" opacity="0.9921568627450981" d="M 378.5 413 L 377.5 415 L 378.5 413 Z " /><path fill="rgb(0,0,0)" stroke="rgb(0,0,0)" stroke-width="1" opacity="0.9921568627450981" d="M 375.5 415 L 374.5 417 L 375.5 415 Z " /><path fill="rgb(0,0,0)" stroke="rgb(0,0,0)" stroke-width="1" opacity="0.9921568627450981" d="M 37.5 416 L 38 418.5 L 37 418.5 L 37.5 416 Z " /><path fill="rgb(0,0,0)" stroke="rgb(0,0,0)" stroke-width="1" opacity="0.9921568627450981" d="M 372.5 417 L 371.5 419 L 372.5 417 Z " /><path fill="rgb(0,0,0)" stroke="rgb(0,0,0)" stroke-width="1" opacity="0.9921568627450981" d="M 369.5 419 L 368.5 421 L 369.5 419 Z " /><path fill="rgb(0,0,0)" stroke="rgb(0,0,0)" stroke-width="1" opacity="0.9921568627450981" d="M 38.5 421 L 39 423.5 L 38 423.5 L 38.5 421 Z " /><path fill="rgb(0,0,0)" stroke="rgb(0,0,0)" stroke-width="1" opacity="0.9921568627450981" d="M 366.5 421 L 365.5 423 L 366.5 421 Z " /><path fill="rgb(0,0,0)" stroke="rgb(0,0,0)" stroke-width="1" opacity="0.9921568627450981" d="M 363.5 423 L 362.5 425 L 363.5 423 Z " /><path fill="rgb(0,0,0)" stroke="rgb(0,0,0)" stroke-width="1" opacity="0.9921568627450981" d="M 360.5 425 L 359.5 427 L 360.5 425 Z " /><path fill="rgb(0,0,0)" stroke="rgb(0,0,0)" stroke-width="1" opacity="0.9921568627450981" d="M 39.5 426 L 40 428.5 L 39 428.5 L 39.5 426 Z " /><path fill="rgb(0,0,0)" stroke="rgb(0,0,0)" stroke-width="1" opacity="0.9921568627450981" d="M 357.5 427 L 356.5 429 L 357.5 427 Z " /><path fill="rgb(0,0,0)" stroke="rgb(0,0,0)" stroke-width="1" opacity="0.9921568627450981" d="M 354.5 429 L 353.5 431 L 354.5 429 Z " /><path fill="rgb(0,0,0)" stroke="rgb(0,0,0)" stroke-width="1" opacity="0.9921568627450981" d="M 351.5 431 L 350.5 433 L 351.5 431 Z " /><path fill="rgb(0,0,0)" stroke="rgb(0,0,0)" stroke-width="1" opacity="0.9921568627450981" d="M 348.5 433 L 347.5 435 L 348.5 433 Z " /><path fill="rgb(0,0,0)" stroke="rgb(0,0,0)" stroke-width="1" opacity="0.9921568627450981" d="M 41.5 435 L 42 437.5 L 41 437.5 L 41.5 435 Z " /><path fill="rgb(0,0,0)" stroke="rgb(0,0,0)" stroke-width="1" opacity="0.9921568627450981" d="M 345.5 435 L 344.5 437 L 345.5 435 Z " /><path fill="rgb(0,0,0)" stroke="rgb(0,0,0)" stroke-width="1" opacity="0.9921568627450981" d="M 342.5 437 L 341.5 439 L 342.5 437 Z " /><path fill="rgb(0,0,0)" stroke="rgb(0,0,0)" stroke-width="1" opacity="0.9921568627450981" d="M 339.5 439 L 338.5 441 L 339.5 439 Z " /><path fill="rgb(0,0,0)" stroke="rgb(0,0,0)" stroke-width="1" opacity="0.9921568627450981" d="M 42.5 440 L 43 442.5 L 42 442.5 L 42.5 440 Z " /><path fill="rgb(0,0,0)" stroke="rgb(0,0,0)" stroke-width="1" opacity="0.9921568627450981" d="M 336.5 441 L 335.5 443 L 336.5 441 Z " /><path fill="rgb(0,0,0)" stroke="rgb(0,0,0)" stroke-width="1" opacity="0.9921568627450981" d="M 333.5 443 L 331.5 446 L 329.5 447 L 330.5 445 L 333.5 443 Z " /><path fill="rgb(0,0,0)" stroke="rgb(0,0,0)" stroke-width="1" opacity="0.9921568627450981" d="M 43.5 445 L 44 447.5 L 43 447.5 L 43.5 445 Z " /><path fill="rgb(0,0,0)" stroke="rgb(0,0,0)" stroke-width="1" opacity="0.9921568627450981" d="M 327.5 447 L 325.5 450 L 323.5 451 L 324.5 449 L 327.5 447 Z " /><path fill="rgb(0,0,0)" stroke="rgb(0,0,0)" stroke-width="1" opacity="0.9921568627450981" d="M 44.5 450 L 45 452.5 L 44 452.5 L 44.5 450 Z " /><path fill="rgb(0,0,0)" stroke="rgb(0,0,0)" stroke-width="1" opacity="0.9921568627450981" d="M 156.5 451 L 163 451.5 L 156.5 452 L 156.5 451 Z " /><path fill="rgb(0,0,0)" stroke="rgb(0,0,0)" stroke-width="1" opacity="0.9921568627450981" d="M 321.5 451 L 320.5 453 L 318.5 454 L 319.5 452 L 321.5 451 Z " /><path fill="rgb(0,0,0)" stroke="rgb(0,0,0)" stroke-width="1" opacity="0.9921568627450981" d="M 148.5 452 L 151 452.5 L 148.5 453 L 148.5 452 Z " /><path fill="rgb(0,0,0)" stroke="rgb(0,0,0)" stroke-width="1" opacity="0.9921568627450981" d="M 168.5 452 L 173 452.5 L 168.5 453 L 168.5 452 Z " /><path fill="rgb(0,0,0)" stroke="rgb(0,0,0)" stroke-width="1" opacity="0.9921568627450981" d="M 143.5 453 L 146 453.5 L 143.5 454 L 143.5 453 Z " /><path fill="rgb(0,0,0)" stroke="rgb(0,0,0)" stroke-width="1" opacity="0.9921568627450981" d="M 177.5 453 L 182 453.5 L 177.5 454 L 177.5 453 Z " /><path fill="rgb(0,0,0)" stroke="rgb(0,0,0)" stroke-width="1" opacity="0.9921568627450981" d="M 139.5 454 L 142 454.5 L 139.5 455 L 139.5 454 Z " /><path fill="rgb(0,0,0)" stroke="rgb(0,0,0)" stroke-width="1" opacity="0.9921568627450981" d="M 187.5 454 L 191 454.5 L 187.5 455 L 187.5 454 Z " /><path fill="rgb(0,0,0)" stroke="rgb(0,0,0)" stroke-width="1" opacity="0.9921568627450981" d="M 134.5 455 L 137 455.5 L 134.5 456 L 134.5 455 Z " /><path fill="rgb(0,0,0)" stroke="rgb(0,0,0)" stroke-width="1" opacity="0.9921568627450981" d="M 195.5 455 L 200 455.5 L 195.5 456 L 195.5 455 Z " /><path fill="rgb(0,0,0)" stroke="rgb(0,0,0)" stroke-width="1" opacity="0.9921568627450981" d="M 129.5 456 L 132 456.5 L 129.5 457 L 129.5 456 Z " /><path fill="rgb(0,0,0)" stroke="rgb(0,0,0)" stroke-width="1" opacity="0.9921568627450981" d="M 205.5 456 L 209 456.5 L 205.5 457 L 205.5 456 Z " /><path fill="rgb(0,0,0)" stroke="rgb(0,0,0)" stroke-width="1" opacity="0.9921568627450981" d="M 311.5 456 L 313 456.5 L 309.5 458 L 309.5 457 L 311.5 456 Z " /><path fill="rgb(0,0,0)" stroke="rgb(0,0,0)" stroke-width="1" opacity="0.9921568627450981" d="M 214.5 457 L 218 457.5 L 214.5 458 L 214.5 457 Z " /><path fill="rgb(0,0,0)" stroke="rgb(0,0,0)" stroke-width="1" opacity="0.9921568627450981" d="M 223.5 458 L 228 458.5 L 223.5 459 L 223.5 458 Z " /><path fill="rgb(0,0,0)" stroke="rgb(0,0,0)" stroke-width="1" opacity="0.9921568627450981" d="M 46.5 459 L 47 461.5 L 46 461.5 L 46.5 459 Z " /><path fill="rgb(0,0,0)" stroke="rgb(0,0,0)" stroke-width="1" opacity="0.9921568627450981" d="M 232.5 459 L 237 459.5 L 232.5 460 L 232.5 459 Z " /><path fill="rgb(0,0,0)" stroke="rgb(0,0,0)" stroke-width="1" opacity="0.9921568627450981" d="M 241.5 460 L 246 460.5 L 241.5 461 L 241.5 460 Z " /><path fill="rgb(0,0,0)" stroke="rgb(0,0,0)" stroke-width="1" opacity="0.9921568627450981" d="M 127.5 461 L 128 463.5 L 127 463.5 L 127.5 461 Z " /><path fill="rgb(0,0,0)" stroke="rgb(0,0,0)" stroke-width="1" opacity="0.9921568627450981" d="M 250.5 461 L 255 461.5 L 250.5 462 L 250.5 461 Z " /><path fill="rgb(0,0,0)" stroke="rgb(0,0,0)" stroke-width="1" opacity="0.9921568627450981" d="M 259.5 462 L 264 462.5 L 259.5 463 L 259.5 462 Z " /><path fill="rgb(0,0,0)" stroke="rgb(0,0,0)" stroke-width="1" opacity="0.9921568627450981" d="M 291.5 462 L 294 462.5 L 291.5 463 L 291.5 462 Z " /><path fill="rgb(0,0,0)" stroke="rgb(0,0,0)" stroke-width="1" opacity="0.9921568627450981" d="M 268.5 463 L 276 463.5 L 268.5 464 L 268.5 463 Z " /><path fill="rgb(0,0,0)" stroke="rgb(0,0,0)" stroke-width="1" opacity="0.9921568627450981" d="M 280.5 463 L 287 463.5 L 280.5 464 L 280.5 463 Z " /><path fill="rgb(0,0,0)" stroke="rgb(0,0,0)" stroke-width="1" opacity="0.9921568627450981" d="M 47.5 464 L 48 466.5 L 47 466.5 L 47.5 464 Z " /><path fill="rgb(0,0,0)" stroke="rgb(0,0,0)" stroke-width="1" opacity="0.9921568627450981" d="M 128.5 466 L 129 468.5 L 128 468.5 L 128.5 466 Z " /><path fill="rgb(0,0,0)" stroke="rgb(0,0,0)" stroke-width="1" opacity="0.9921568627450981" d="M 48.5 469 L 49 471.5 L 48 471.5 L 48.5 469 Z " /><path fill="rgb(0,0,0)" stroke="rgb(0,0,0)" stroke-width="1" opacity="0.9921568627450981" d="M 129.5 476 L 130 477.5 L 127.5 481 L 128 479.5 L 129.5 476 Z " /><path fill="rgb(0,0,0)" stroke="rgb(0,0,0)" stroke-width="1" opacity="0.9921568627450981" d="M 50.5 478 L 51 480.5 L 50 480.5 L 50.5 478 Z " /><path fill="rgb(0,0,0)" stroke="rgb(0,0,0)" stroke-width="1" opacity="0.9921568627450981" d="M 121.5 482 L 124 482.5 L 121.5 483 L 121.5 482 Z " /><path fill="rgb(0,0,0)" stroke="rgb(0,0,0)" stroke-width="1" opacity="0.9921568627450981" d="M 51.5 483 L 52 485.5 L 51 485.5 L 51.5 483 Z " /><path fill="rgb(0,0,0)" stroke="rgb(0,0,0)" stroke-width="1" opacity="0.9921568627450981" d="M 117.5 483 L 120 483.5 L 117.5 484 L 117.5 483 Z " /><path fill="rgb(0,0,0)" stroke="rgb(0,0,0)" stroke-width="1" opacity="0.9921568627450981" d="M 112.5 484 L 115 484.5 L 112.5 485 L 112.5 484 Z " /><path fill="rgb(0,0,0)" stroke="rgb(0,0,0)" stroke-width="1" opacity="0.9921568627450981" d="M 107.5 485 L 110 485.5 L 107.5 486 L 107.5 485 Z " /><path fill="rgb(0,0,0)" stroke="rgb(0,0,0)" stroke-width="1" opacity="0.9921568627450981" d="M 103.5 486 L 106 486.5 L 103.5 487 L 103.5 486 Z " /><path fill="rgb(0,0,0)" stroke="rgb(0,0,0)" stroke-width="1" opacity="0.9921568627450981" d="M 98.5 487 L 101 487.5 L 98.5 488 L 98.5 487 Z " /><path fill="rgb(0,0,0)" stroke="rgb(0,0,0)" stroke-width="1" opacity="0.9921568627450981" d="M 93.5 488 L 96 488.5 L 93.5 489 L 93.5 488 Z " /><path fill="rgb(0,0,0)" stroke="rgb(0,0,0)" stroke-width="1" opacity="0.9921568627450981" d="M 84.5 490 L 87 490.5 L 84.5 491 L 84.5 490 Z " /><path fill="rgb(0,0,0)" stroke="rgb(0,0,0)" stroke-width="1" opacity="0.9921568627450981" d="M 54.5 493 Q 57.3 496.2 64 495.5 L 57.5 496 L 54.5 493 Z " /><path fill="rgb(0,0,0)" stroke="rgb(0,0,0)" stroke-width="1" opacity="0.9921568627450981" d="M 70.5 493 L 73 493.5 L 70.5 494 L 70.5 493 Z " /><path fill="rgb(0,0,0)" stroke="rgb(0,0,0)" stroke-width="1" opacity="0.9921568627450981" d="M 65.5 494 L 68 494.5 L 65.5 495 L 65.5 494 Z " /><path fill="rgb(0,0,0)" stroke="rgb(0,0,0)" stroke-width="1" opacity="1" d="M 448 16 L 487.5 16 L 494 19.5 L 496 24.5 L 496 64 L 480 64 L 480 43.5 L 396.5 126 L 389.5 127 L 319.5 59 L 228.5 150 L 221.5 151 L 167.5 99 L 61.5 205 L 51 194.5 L 163.5 82 L 170.5 81 L 224.5 133 L 315.5 42 L 322.5 41 L 392.5 109 L 468.5 32 L 448 32 L 448 16 Z " /><path fill="rgb(0,0,0)" stroke="rgb(0,0,0)" stroke-width="1" opacity="1" d="M 384.5 152 L 415.5 152 L 422 155.5 L 424 160.5 L 424 279.5 L 420.5 286 L 415.5 288 L 384.5 288 L 378 284.5 L 376 279.5 L 376 160.5 L 379.5 154 L 384.5 152 Z M 392 168 L 392 272 L 393 272 L 408 272 L 408 169 L 408 168 L 392 168 Z " /><path fill="rgb(0,0,0)" stroke="rgb(0,0,0)" stroke-width="1" opacity="1" d="M 240.5 168 L 271.5 168 L 278 171.5 L 280 176.5 L 280 279.5 L 276.5 286 L 271.5 288 L 240.5 288 L 234 284.5 L 232 279.5 L 232 176.5 L 235.5 170 L 240.5 168 Z M 248 184 L 248 272 L 249 272 L 264 272 L 264 185 L 264 184 L 248 184 Z " /><path fill="rgb(0,0,0)" stroke="rgb(0,0,0)" stroke-width="1" opacity="1" d="M 312.5 192 L 343.5 192 L 350 195.5 L 352 200.5 L 352 279.5 L 348.5 286 L 343.5 288 L 312.5 288 L 306 284.5 L 304 279.5 L 304 200.5 L 307.5 194 L 312.5 192 Z M 320 208 L 320 272 L 321 272 L 336 272 L 336 209 L 336 208 L 320 208 Z " /><path fill="rgb(0,0,0)" stroke="rgb(0,0,0)" stroke-width="1" opacity="1" d="M 168.5 224 L 199.5 224 L 206 227.5 L 208 232.5 L 208 279.5 L 204.5 286 L 199.5 288 L 168.5 288 L 162 284.5 L 160 279.5 L 160 232.5 L 163.5 226 L 168.5 224 Z M 176 240 L 176 272 L 192 272 L 192 240 L 176 240 Z " /><path fill="rgb(0,0,0)" stroke="rgb(0,0,0)" stroke-width="1" opacity="1" d="M 457.5 292 Q 479.3 292.7 489 305.5 Q 497.1 311.9 495 328.5 L 486.5 341 L 317.5 454 L 295.5 462 L 276.5 464 L 275.5 463 L 264.5 463 L 263.5 462 L 255.5 462 L 254.5 461 L 246.5 461 L 245.5 460 L 237.5 460 L 236.5 459 L 228.5 459 L 227.5 458 L 218.5 458 L 217.5 457 L 209.5 457 L 208.5 456 L 156.5 451 L 126 457 L 130 475.5 L 126.5 481 L 79.5 492 L 64.5 495 L 57.5 495 L 54 492.5 L 52 487.5 L 42 435.5 L 40 430.5 L 38 416.5 L 28 373.5 L 25 354.5 L 19 330.5 L 17 320.5 L 17 312.5 L 23.5 308 L 87.5 295 L 93 299.5 L 98 325 L 118.5 314 L 130.5 310 L 144.5 307 L 170.5 307 L 184.5 310 L 198.5 315 L 250.5 343 L 263.5 345 L 270.5 343 L 337.5 308 L 351.5 304 L 360.5 304 L 376.5 309 L 390 320.5 L 391.5 323 L 448.5 294 L 457.5 292 Z M 456 308 L 400 336 L 397 339 Q 397 349 392 354 L 386 359 L 295 413 L 275 421 L 265 423 L 241 423 L 153 402 L 156 389 L 158 387 L 232 405 Q 238 404 241 407 L 250 407 L 251 408 L 265 407 L 279 403 L 377 346 L 382 340 L 382 337 L 378 330 Q 373 322 363 320 Q 350 318 344 322 L 275 358 L 267 360 L 255 360 L 247 358 L 193 329 L 182 325 L 167 322 L 149 322 L 134 325 Q 114 330 102 343 L 104 348 L 123 442 L 151 436 L 178 437 L 188 439 L 196 439 L 197 440 L 205 440 L 206 441 L 214 441 L 215 442 L 223 442 L 224 443 L 241 444 L 242 445 L 269 447 L 270 448 L 287 448 L 292 447 Q 305 444 315 438 L 476 330 L 480 325 L 479 318 Q 473 307 456 308 Z " /></svg>