<?xml version="1.0" encoding="UTF-8"?>
<svg version="1.1" xmlns="http://www.w3.org/2000/svg" width="512" height="512">
<path d="M0 0 C8.53184879 6.22277045 14.13555723 15.67287404 20.1953125 24.1796875 C23.24952428 28.45856457 26.38335537 32.67078859 29.5546875 36.86328125 C33.79496449 42.47849954 37.94911177 48.14887074 42.0546875 53.86328125 C46.1439301 59.55305765 50.27574797 65.2045562 54.4921875 70.80078125 C64.07388 83.51821387 73.49799725 96.3488193 82.78295898 109.28442383 C85.95399898 113.68964562 89.1884579 118.03801993 92.47851562 122.35498047 C100.86592103 133.37449296 107.99906294 143.33329545 106.5546875 157.86328125 C105.50302218 162.65344715 104.28464171 166.76834994 101.5546875 170.86328125 C101.69707048 176.70098347 104.30241759 182.1130346 107.5546875 186.86328125 C110.87613256 189.73508163 114.49987856 191.87696707 118.3046875 194.05078125 C137.80363205 205.61011491 137.80363205 205.61011491 139.5546875 210.86328125 C139.64758807 212.43436708 139.68379391 214.00911361 139.68611526 215.58294201 C139.68995641 216.55933232 139.69379755 217.53572264 139.6977551 218.54170054 C139.69688862 219.61697058 139.69602213 220.69224062 139.69512939 221.8000946 C139.69958608 223.51056472 139.69958608 223.51056472 139.7041328 225.25558978 C139.71131971 228.42581616 139.71399263 231.59600956 139.71473026 234.76624286 C139.71658003 238.18355917 139.72412706 241.60086371 139.73086548 245.01817322 C139.74445339 252.4934993 139.75047443 259.96882003 139.75487614 267.44415641 C139.75763818 272.11189433 139.7618755 276.77963019 139.76638031 281.44736671 C139.77857432 294.37076913 139.78887289 307.29416989 139.7922554 320.21757793 C139.79247497 321.04489122 139.79269453 321.87220452 139.79292075 322.72458791 C139.79313903 323.55388537 139.79335731 324.38318283 139.7935822 325.23761052 C139.79402567 326.91809126 139.79447223 328.598572 139.79492188 330.27905273 C139.7951433 331.11262988 139.79536473 331.94620703 139.79559287 332.80504409 C139.79953977 346.30804756 139.8169899 359.81099703 139.8402814 373.31397965 C139.86400105 387.17710754 139.87645756 401.04020834 139.87762332 414.90335685 C139.87853982 422.6870272 139.88428557 430.47062722 139.90244293 438.25427818 C139.91785231 444.88332843 139.92295952 451.51228661 139.91470483 458.14135136 C139.91080101 461.52264446 139.91335013 464.90360166 139.92576218 468.28489685 C139.93844082 471.95394093 139.93262645 475.62250907 139.92218018 479.29154968 C139.93023658 480.35566611 139.93829298 481.41978255 139.94659352 482.51614493 C139.88650974 491.53739641 138.06187152 498.35609723 131.5546875 504.86328125 C125.77715171 508.84810861 119.75396935 508.28202438 113.00862122 508.24423218 C111.73154303 508.24891215 110.45446484 508.25359212 109.13868731 508.25841391 C105.60066352 508.27092786 102.06288274 508.2647519 98.52485812 508.25545526 C94.70685793 508.24866689 90.88889949 508.25914479 87.07090759 508.26739502 C79.59497699 508.28073568 72.11913673 508.27785347 64.64320258 508.2691571 C58.56927867 508.26238379 52.49538008 508.2614623 46.42145348 508.26472855 C45.12510308 508.26541809 45.12510308 508.26541809 43.80256378 508.26612157 C42.04696617 508.26708074 40.29136857 508.26805338 38.53577098 508.26903935 C22.07424141 508.27759382 5.61276196 508.26775741 -10.84875939 508.25163825 C-24.98179891 508.23822788 -39.11476454 508.24056896 -53.24780273 508.25439453 C-69.65480988 508.27043705 -86.06177313 508.27677736 -102.46878701 508.26755774 C-104.21703326 508.26660207 -105.96527951 508.26565896 -107.71352577 508.26472855 C-108.57373611 508.26426572 -109.43394645 508.26380289 -110.32022377 508.26332604 C-116.39028854 508.26073269 -122.46032551 508.26511441 -128.53038597 508.27216721 C-135.92258032 508.28056734 -143.31467906 508.2783332 -150.70686241 508.26232497 C-154.48040085 508.25442323 -158.25377968 508.25138293 -162.02731705 508.26127243 C-166.1117503 508.27181517 -170.19577809 508.25925496 -174.28019714 508.24423218 C-175.48134177 508.25092434 -176.68248639 508.25761651 -177.92002934 508.26451147 C-179.00912171 508.25668822 -180.09821409 508.24886498 -181.22030926 508.24080467 C-182.1636996 508.24031762 -183.10708995 508.23983056 -184.07906789 508.23932874 C-186.90448452 507.79030888 -187.75748322 507.13555447 -189.4453125 504.86328125 C-189.7753125 503.87328125 -190.1053125 502.88328125 -190.4453125 501.86328125 C-195.3953125 501.53328125 -200.3453125 501.20328125 -205.4453125 500.86328125 C-205.7753125 502.51328125 -206.1053125 504.16328125 -206.4453125 505.86328125 C-209.92872565 508.18555668 -211.29413558 508.11980955 -215.40885925 508.13743591 C-216.65513092 508.14741104 -217.90140259 508.15738617 -219.18544006 508.16766357 C-220.56918322 508.1685594 -221.95292655 508.16922296 -223.33666992 508.16967773 C-224.79209825 508.17729831 -226.24752254 508.18572563 -227.70294189 508.19490051 C-231.65979451 508.21686816 -235.61656984 508.22564794 -239.57347655 508.23072696 C-242.04684539 508.2343692 -244.52019395 508.24060871 -246.99355507 508.24772835 C-255.62632766 508.272235 -264.25904011 508.28527644 -272.8918457 508.28881836 C-280.93134656 508.29245004 -288.97046479 508.32231569 -297.00984877 508.36422294 C-303.91614752 508.39895793 -310.82231974 508.41436739 -317.72870523 508.41506439 C-321.85162183 508.41585641 -325.97414917 508.42455914 -330.09697533 508.45306206 C-333.97870957 508.47929659 -337.85973345 508.48141852 -341.74151611 508.46540642 C-343.16206223 508.4635959 -344.58264967 508.47024685 -346.00310707 508.48622513 C-354.07480606 508.57144518 -360.22130375 508.38395349 -366.4453125 502.86328125 C-372.25728823 497.05130552 -372.67120724 490.47597672 -372.71746141 482.65455043 C-372.71368208 481.5888854 -372.70990276 480.52322037 -372.70600891 479.42526245 C-372.70983446 478.27941465 -372.71366001 477.13356684 -372.71760148 475.95299637 C-372.72791302 472.11689221 -372.7239428 468.28093822 -372.7199707 464.44482422 C-372.72322503 461.69331429 -372.72943689 458.94181269 -372.73545837 456.19030762 C-372.7481947 449.49525614 -372.75000053 442.80024478 -372.74765811 436.10518323 C-372.74587416 430.66440803 -372.74762623 425.22364499 -372.75188255 419.78287125 C-372.75247774 419.00816214 -372.75307293 418.23345304 -372.75368616 417.4352679 C-372.75489791 415.8614273 -372.75611205 414.28758669 -372.75732853 412.71374609 C-372.76819925 397.96230206 -372.76604337 383.21088091 -372.75994369 368.4594356 C-372.75477082 354.96112243 -372.76604053 341.46288134 -372.78504191 327.96458243 C-372.80440586 314.10246772 -372.81267911 300.24038715 -372.80891865 286.37825882 C-372.80700494 278.5964261 -372.809511 270.81465479 -372.82363319 263.0328331 C-372.83552934 256.41074083 -372.83697154 249.78874781 -372.82484303 243.16665421 C-372.81894275 239.78773525 -372.8195053 236.40914728 -372.82984543 233.03021622 C-372.84024364 229.36908487 -372.83226765 225.70844595 -372.8195343 222.04733276 C-372.82690859 220.97720629 -372.83428287 219.90707981 -372.84188062 218.80452526 C-372.77581518 209.81138169 -372.77581518 209.81138169 -369.4453125 205.86328125 C-367.21899414 204.03320312 -367.21899414 204.03320312 -364.60546875 202.33203125 C-363.14995605 201.373573 -363.14995605 201.373573 -361.66503906 200.39575195 C-360.6231543 199.72503662 -359.58126953 199.05432129 -358.5078125 198.36328125 C-357.43112305 197.65840576 -356.35443359 196.95353027 -355.24511719 196.22729492 C-351.98486369 194.09601596 -348.7157661 191.9788638 -345.4453125 189.86328125 C-343.6673649 188.70405062 -341.88997491 187.54396407 -340.11328125 186.3828125 C-336.04650857 183.72831325 -331.97175798 181.08638164 -327.89404297 178.44873047 C-323.67754028 175.71872365 -319.46831341 172.97753132 -315.2578125 170.23828125 C-308.46833208 165.82380573 -301.67228655 161.41962002 -294.87158203 157.02246094 C-286.9033647 151.86885057 -278.94877449 146.6942993 -270.99365234 141.52050781 C-266.81135387 138.80069156 -262.62829946 136.08203847 -258.4453125 133.36328125 C-256.77864211 132.27995364 -255.11197545 131.1966203 -253.4453125 130.11328125 C-218.4453125 107.36328125 -218.4453125 107.36328125 -183.4453125 84.61328125 C-182.6198291 84.07654785 -181.7943457 83.53981445 -180.94384766 82.98681641 C-179.28268854 81.90740384 -177.62090754 80.8289477 -175.95849609 79.75146484 C-171.70186961 76.99079338 -167.45845178 74.21260925 -163.234375 71.40234375 C-131.83430442 50.57727342 -131.83430442 50.57727342 -113.7578125 52.55078125 C-103.86287196 52.78269392 -97.16911449 45.77241392 -89.90087891 39.83886719 C-86.01419682 36.71190045 -81.978873 33.79655246 -77.9453125 30.86328125 C-76.36766221 29.70294701 -74.79084107 28.5414846 -73.21484375 27.37890625 C-72.43189941 26.80205078 -71.64895508 26.22519531 -70.84228516 25.63085938 C-68.40004903 23.82990301 -65.95960286 22.02654394 -63.51953125 20.22265625 C-59.56099243 17.29684818 -55.59634902 14.37949832 -51.62744141 11.46777344 C-50.21593711 10.42991192 -48.80660275 9.38908996 -47.39990234 8.34472656 C-32.79694046 -2.49647711 -17.49712186 -10.31334419 0 0 Z " fill="#010200" transform="translate(372.4453125,4.13671875)"/>
<path d="M0 0 C3.93609489 1.47968011 7.54381517 3.33206237 11.25 5.3125 C31.08179112 15.27679131 53.93730231 17.80569332 75.42651367 11.26098633 C77.84633417 10.45096889 80.23544816 9.58260261 82.625 8.6875 C83.4190625 8.40455078 84.213125 8.12160156 85.03125 7.83007812 C89.92339277 6.02158928 93.9938083 3.88338474 98.18896484 0.76879883 C100 0 100 0 102.01660156 0.70019531 C103.90637262 1.93864203 105.65886548 3.21120564 107.3984375 4.65234375 C108.35423706 5.43786621 108.35423706 5.43786621 109.3293457 6.23925781 C110.00441162 6.79967773 110.67947754 7.36009766 111.375 7.9375 C112.81301485 9.11944802 114.25183172 10.30042087 115.69140625 11.48046875 C116.77446045 12.36871338 116.77446045 12.36871338 117.87939453 13.27490234 C120.99227858 15.80721166 124.14853469 18.28201868 127.3125 20.75 C132.27188721 24.6264218 137.17298947 28.56424245 142.03515625 32.5625 C151.18395857 40.08404499 160.3751997 47.54601604 169.71020508 54.83544922 C174.87483235 58.87809315 179.95787441 63.01734578 185.0390625 67.1640625 C189.32451618 70.65530083 193.64329453 74.09818888 198 77.5 C203.74010668 81.9820011 209.39693246 86.55956557 215.0390625 91.1640625 C219.32451618 94.65530083 223.64329453 98.09818888 228 101.5 C233.0484644 105.44195165 238.03751462 109.4503742 243 113.5 C248.00827612 117.58522451 253.03845699 121.63755203 258.125 125.625 C258.68461426 126.06376465 259.24422852 126.5025293 259.82080078 126.95458984 C262.869896 129.34133479 265.92581652 131.71914796 268.984375 134.09375 C269.96059814 134.85437744 269.96059814 134.85437744 270.95654297 135.63037109 C272.21389403 136.60994646 273.47326709 137.58693319 274.73486328 138.56103516 C276.17497011 139.68416082 277.59035865 140.83886685 279 142 C279 142.33 279 142.66 279 143 C278.37269617 143.00097681 277.74539235 143.00195362 277.09907931 143.00296003 C239.94769547 143.0611895 202.79637281 143.13495389 165.64506171 143.22898628 C161.18760978 143.2402549 156.73015754 143.25139328 152.27270508 143.26245117 C151.38527942 143.26465486 150.49785377 143.26685854 149.58353642 143.269129 C135.20078416 143.30453387 120.81803194 143.32937997 106.43525221 143.35034702 C91.68515089 143.37208371 76.93510628 143.40511373 62.18505317 143.44870156 C53.07815863 143.47525513 43.97133481 143.49292317 34.86440346 143.49934604 C28.62558209 143.50458863 22.38684982 143.52076737 16.14807614 143.54566566 C12.54471185 143.55971961 8.94150721 143.56883706 5.33811378 143.56500816 C1.43729949 143.56098875 -2.46320523 143.57993956 -6.3639679 143.60127258 C-8.08427757 143.59400122 -8.08427757 143.59400122 -9.83934098 143.58658296 C-10.87988262 143.5960395 -11.92042425 143.60549604 -12.99249744 143.61523914 C-13.89357379 143.61713775 -14.79465013 143.61903635 -15.72303182 143.62099248 C-18.50679895 144.08435806 -19.35718893 144.73081774 -21 147 C-21.33 148.32 -21.66 149.64 -22 151 C-27.28 151 -32.56 151 -38 151 C-38.99 149.02 -39.98 147.04 -41 145 C-43.57747274 143.71126363 -45.44039337 143.86067032 -48.32766724 143.84178162 C-49.45791321 143.8319928 -50.58815918 143.82220398 -51.75265503 143.81211853 C-52.99846344 143.80636307 -54.24427185 143.8006076 -55.52783203 143.79467773 C-56.83510254 143.78477814 -58.14237305 143.77487854 -59.48925781 143.76467896 C-63.07991428 143.7375997 -66.67058394 143.71660653 -70.26128626 143.69667697 C-74.01160756 143.67483602 -77.76188809 143.64743809 -81.51217651 143.62062073 C-88.61653066 143.57066823 -95.7209074 143.5257389 -102.82530582 143.48259836 C-110.91228688 143.43324782 -118.99922702 143.37832161 -127.08616853 143.32291877 C-143.72407466 143.20905947 -160.36201826 143.10222905 -177 143 C-173.43802256 139.38506612 -169.77591313 136.1433196 -165.75 133.0625 C-160.25253259 128.80240468 -154.85368318 124.439285 -149.5 120 C-143.80885308 115.28661036 -138.06674317 110.65546192 -132.23828125 106.11328125 C-127.77910696 102.63146023 -123.38265769 99.07751928 -119 95.5 C-113.47666343 90.99232786 -107.90815403 86.55157233 -102.2890625 82.1640625 C-97.81563292 78.66223753 -93.40132798 75.09188836 -89 71.5 C-83.47660315 66.99240027 -77.90815564 62.55157358 -72.2890625 58.1640625 C-67.81563292 54.66223753 -63.40132798 51.09188836 -59 47.5 C-53.47660315 42.99240027 -47.90815564 38.55157358 -42.2890625 34.1640625 C-37.13137177 30.12659419 -32.05427323 25.99371384 -26.98071289 21.85131836 C-21.9312076 17.73620177 -16.82160449 13.70417822 -11.68701172 9.69604492 C-7.69201354 6.56848193 -3.80658103 3.35341663 0 0 Z " fill="#FEEA98" transform="translate(205,354)"/>
<path d="M0 0 C1.8515625 1.8203125 1.8515625 1.8203125 3.625 4.125 C11.19643047 13.11339004 21.72749576 18.22769713 33 21 C36.67132728 21.30197984 40.35272754 21.31847125 44.03515625 21.30273438 C46.234375 21.36328125 46.234375 21.36328125 50 22 C53.59719867 26.47525043 55.00910801 32.43446694 56.79296875 37.8125 C57.14386063 38.85897705 57.4947525 39.9054541 57.85627747 40.98364258 C58.59460755 43.19154331 59.32986741 45.40047281 60.06225586 47.61035156 C61.18452989 50.99105293 62.32112332 54.3667051 63.45898438 57.7421875 C64.17535044 59.89033464 64.89087391 62.038763 65.60546875 64.1875 C65.94603806 65.19594971 66.28660736 66.20439941 66.63749695 67.2434082 C66.9481459 68.18788818 67.25879486 69.13236816 67.57885742 70.10546875 C67.85404709 70.93199951 68.12923676 71.75853027 68.4127655 72.61010742 C69.04945676 75.20127625 69.23879846 77.3426422 69 80 C67.09375 81.921875 67.09375 81.921875 64.5 83.75 C58.71815713 88.10271504 53.52112875 92.86584962 49.72167969 99.09619141 C46.13596408 104.93422262 42.66233858 108.12431041 36.75 111.5 C35.04265228 112.52726261 33.33701507 113.55737181 31.6328125 114.58984375 C30.72176758 115.13624512 29.81072266 115.68264648 28.87207031 116.24560547 C23.71188437 119.39768777 18.67538709 122.73839785 13.625 126.0625 C11.9671702 127.14938819 10.3093383 128.2362732 8.65132141 129.32287598 C6.9397986 130.44489088 5.22885243 131.56778002 3.51806641 132.69091797 C-0.08701574 135.05749682 -3.69370732 137.42161462 -7.30078125 139.78515625 C-7.90967194 140.18414124 -8.51856262 140.58312622 -9.14590454 140.99420166 C-15.19865259 144.96017105 -21.25182168 148.92549735 -27.30548096 152.89007568 C-28.94064343 153.96112094 -30.57555114 155.03255511 -32.21044922 156.10400391 C-38.79652275 160.41887297 -45.39309038 164.71711053 -52 169 C-52.87430664 169.56895996 -53.74861328 170.13791992 -54.64941406 170.72412109 C-72.87384165 182.55874095 -72.87384165 182.55874095 -82 186 C-82.79664063 186.30292969 -83.59328125 186.60585938 -84.4140625 186.91796875 C-100.87346581 192.78059903 -121.98869259 191.84494759 -137.74609375 184.48901367 C-146.52918405 180.15418195 -154.92821902 175.08387724 -163.16503906 169.79785156 C-165.27639886 168.45888725 -167.39531629 167.14302551 -169.53027344 165.84277344 C-172.77523633 163.86419292 -175.98814944 161.84007974 -179.18786621 159.78921509 C-180.47006663 158.97724505 -181.76153011 158.1797055 -183.06213379 157.39755249 C-187.10263447 154.95760363 -190.80884618 152.53149898 -194 149 C-194.81313258 145.62348606 -194.79076565 143.10397252 -194.33666992 139.67333984 C-193.81607139 135.53950815 -194.8972838 133.55286531 -197 130 C-200.94554149 125.17767151 -205.17201463 122.50546667 -211.42578125 121.6796875 C-215.8553441 121.4780382 -219.01221408 121.67800688 -222.8125 124.0625 C-226 126 -226 126 -228.23828125 125.8984375 C-231.98097109 124.68087221 -235.09681684 122.68773577 -238.375 120.5625 C-239.06819336 120.12091553 -239.76138672 119.67933105 -240.47558594 119.22436523 C-247.7185864 114.58887773 -254.90439237 109.85817357 -262 105 C-263.19109375 104.34644531 -263.19109375 104.34644531 -264.40625 103.6796875 C-266 102 -266 102 -266.453125 98.56640625 C-266.40803058 97.23081552 -266.33948673 95.89585226 -266.25 94.5625 C-266.21390625 93.24378906 -266.1778125 91.92507812 -266.140625 90.56640625 C-265 87 -265 87 -263.43867493 85.87834167 C-258.53623941 83.59499429 -253.62443445 81.72479882 -248.46484375 80.109375 C-247.63320206 79.84223694 -246.80156036 79.57509888 -245.94471741 79.29986572 C-243.27755577 78.44378967 -240.6078506 77.59607102 -237.9375 76.75 C-223.30537631 72.1025761 -208.75745226 67.23375757 -194.23046875 62.26953125 C-162.87470616 51.55953319 -131.46104216 41.02180487 -100.0371809 30.51355171 C-89.74542604 27.07170237 -79.45643991 23.62179905 -69.17064798 20.1621694 C-61.83063242 17.69411257 -54.48760565 15.23515946 -47.14227545 12.78296572 C-42.79073571 11.32994135 -38.44063711 9.87291128 -34.09382248 8.40580559 C-30.04690016 7.04008683 -25.99638785 5.68562701 -21.94278336 4.33987617 C-20.45988005 3.84537352 -18.97834253 3.3467534 -17.49830627 2.84373474 C-15.4807699 2.15871996 -13.45885561 1.48865611 -11.43515015 0.8221283 C-10.30615988 0.44377303 -9.17716961 0.06541777 -8.01396751 -0.32440281 C-4.8578896 -1.03185482 -3.05233302 -1.00339374 0 0 Z " fill="#5DAA23" transform="translate(364,164)"/>
<path d="M0 0 C12.30135891 6.70983213 12.30135891 6.70983213 17.75 10.4375 C19.02781132 11.30331623 20.3065206 12.1678081 21.5859375 13.03125 C22.28041992 13.50046875 22.97490234 13.9696875 23.69042969 14.453125 C28.22439355 17.48982638 32.8019762 20.46009153 37.375 23.4375 C38.36918945 24.08517334 39.36337891 24.73284668 40.38769531 25.40014648 C46.75544394 29.54565311 53.13162563 33.67795284 59.51391602 37.80102539 C66.44529291 42.28149239 73.35619364 46.79323722 80.26806641 51.30371094 C92.60084257 59.35117946 104.94451213 67.38174106 117.3125 75.375 C125.04434533 80.37198435 132.75507796 85.40109986 140.46289062 90.43505859 C145.68393849 93.84338794 150.91348015 97.23763071 156.15649414 100.61206055 C162.87327464 104.93602127 169.51489082 109.33135875 176 114 C173.03970141 118.02370683 169.70691205 121.01003605 165.75 124 C164.49378547 124.96744487 163.23861829 125.93625087 161.984375 126.90625 C161.33146484 127.41027344 160.67855469 127.91429687 160.00585938 128.43359375 C156.62867009 131.07089249 153.31640211 133.78694576 150 136.5 C145.06105181 140.53267575 140.09179439 144.51811885 135.0625 148.4375 C129.8024431 152.53937923 124.63749637 156.74578038 119.5 161 C113.8085006 165.71297432 108.06675554 170.34452844 102.23828125 174.88671875 C97.77910696 178.36853977 93.38265769 181.92248072 89 185.5 C83.47666343 190.00767214 77.90815403 194.44842767 72.2890625 198.8359375 C67.81563292 202.33776247 63.40132798 205.90811164 59 209.5 C53.47660315 214.00759973 47.90815564 218.44842642 42.2890625 222.8359375 C37.81562812 226.33776622 33.4015001 229.90831683 29 233.5 C23.84251951 237.70530147 18.66530185 241.88232726 13.4375 246 C12.89029297 246.43248047 12.34308594 246.86496094 11.77929688 247.31054688 C7.92532987 250.33428353 3.99609542 253.14564613 0 256 C0 171.52 0 87.04 0 0 Z " fill="#FEDD54" transform="translate(16,231)"/>
<path d="M0 0 C0 84.48 0 168.96 0 256 C-5.30509581 252.02117814 -10.50728717 248.0156015 -15.625 243.8125 C-20.71082994 239.65654195 -25.82220714 235.54082281 -31 231.5 C-36.74023035 227.01816062 -42.39693627 222.44043132 -48.0390625 217.8359375 C-52.32452011 214.34469597 -56.64342485 210.90198179 -61 207.5 C-69.44628809 200.90021042 -77.73752518 194.11185744 -86.04101562 187.33398438 C-93.54679292 181.20990338 -101.07625122 175.12576332 -108.71142578 169.16357422 C-113.87567279 165.12129091 -118.95827897 160.98232406 -124.0390625 156.8359375 C-128.32451618 153.34469917 -132.64329453 149.90181112 -137 146.5 C-142.7301532 142.02577079 -148.38021488 137.45972219 -154.00830078 132.85791016 C-157.33009418 130.14774856 -160.66809515 127.46485156 -164.0546875 124.8359375 C-164.69792969 124.33642578 -165.34117187 123.83691406 -166.00390625 123.32226562 C-167.21952284 122.38200268 -168.43811936 121.44557528 -169.66015625 120.51367188 C-172.30844363 118.46612427 -174.12260009 116.81609987 -176 114 C-168.99173704 108.99847882 -161.83901638 104.28768386 -154.5625 99.6875 C-145.27300226 93.78330625 -136.07817046 87.75647148 -126.9375 81.625 C-119.4358787 76.59417731 -111.91492948 71.62441929 -104.21264648 66.90478516 C-97.52889479 62.77491638 -91.02483506 58.37433757 -84.5 54 C-76.7792752 48.82495763 -69.04667397 43.69604 -61.12915039 38.82495117 C-54.82662034 34.93141728 -48.63300629 30.87346252 -42.4375 26.8125 C-41.33374023 26.08909424 -40.22998047 25.36568848 -39.09277344 24.62036133 C-36.84864479 23.148915 -34.60492293 21.67684999 -32.36132812 20.20458984 C-26.97485099 16.67071544 -21.58173677 13.14701473 -16.1875 9.625 C-14.75651978 8.68877808 -14.75651978 8.68877808 -13.29663086 7.73364258 C-12.40854736 7.15380615 -11.52046387 6.57396973 -10.60546875 5.9765625 C-9.83356201 5.47205566 -9.06165527 4.96754883 -8.26635742 4.44775391 C-1.30370995 0 -1.30370995 0 0 0 Z " fill="#FEDD54" transform="translate(496,231)"/>
<path d="M0 0 C0.66 0.33 1.32 0.66 2 1 C1.67 1.33 1.34 1.66 1 2 C1.8326079 1.99793905 2.6652158 1.99587809 3.52305424 1.99375468 C52.89180899 1.87295023 102.26035397 1.80954137 151.62926442 1.82046365 C157.5596463 1.82172613 163.49002816 1.82251002 169.42041016 1.82299805 C170.60102126 1.82310325 171.78163236 1.82320845 172.99801956 1.82331683 C192.10372896 1.8238785 211.20917376 1.78568739 230.31480242 1.73312465 C249.92518541 1.68003774 269.53527336 1.66871229 289.14571083 1.6959936 C301.24248558 1.71151077 313.33831758 1.69462061 325.43496405 1.63601431 C333.73492374 1.5989257 342.03425268 1.60247494 350.33421804 1.63765464 C355.12026414 1.65675045 359.90456706 1.65824156 364.69046021 1.61136436 C369.08022655 1.56876444 373.46688793 1.57767137 377.85656665 1.62604436 C379.43689802 1.63463724 381.01746735 1.62498298 382.59752478 1.59433017 C395.36035604 1.36320563 401.76449212 5.43952812 411 14 C412.46254752 15.16623337 413.93501342 16.32054813 415.4296875 17.4453125 C416.01621094 17.90164063 416.60273438 18.35796875 417.20703125 18.828125 C418.37202425 19.73392752 419.5388401 20.63738831 420.70703125 21.5390625 C422.15634938 22.66959637 423.58123568 23.83135219 425 25 C425 25.33 425 25.66 425 26 C424.37269617 26.00097681 423.74539235 26.00195362 423.09907931 26.00296003 C385.94769547 26.0611895 348.79637281 26.13495389 311.64506171 26.22898628 C307.18760978 26.2402549 302.73015754 26.25139328 298.27270508 26.26245117 C297.38527942 26.26465486 296.49785377 26.26685854 295.58353642 26.269129 C281.20078416 26.30453387 266.81803194 26.32937997 252.43525221 26.35034702 C237.68515089 26.37208371 222.93510628 26.40511373 208.18505317 26.44870156 C199.07815863 26.47525513 189.97133481 26.49292317 180.86440346 26.49934604 C174.62558209 26.50458863 168.38684982 26.52076737 162.14807614 26.54566566 C158.54471185 26.55971961 154.94150721 26.56883706 151.33811378 26.56500816 C147.43729949 26.56098875 143.53679477 26.57993956 139.6360321 26.60127258 C137.91572243 26.59400122 137.91572243 26.59400122 136.16065902 26.58658296 C135.12011738 26.5960395 134.07957575 26.60549604 133.00750256 26.61523914 C132.10642621 26.61713775 131.20534987 26.61903635 130.27696818 26.62099248 C127.49320105 27.08435806 126.64281107 27.73081774 125 30 C124.67 31.32 124.34 32.64 124 34 C118.72 34 113.44 34 108 34 C107.01 32.02 106.02 30.04 105 28 C102.42252726 26.71126363 100.55960663 26.86067032 97.67233276 26.84178162 C96.54208679 26.8319928 95.41184082 26.82220398 94.24734497 26.81211853 C93.00153656 26.80636307 91.75572815 26.8006076 90.47216797 26.79467773 C89.16489746 26.78477814 87.85762695 26.77487854 86.51074219 26.76467896 C82.92008572 26.7375997 79.32941606 26.71660653 75.73871374 26.69667697 C71.98839244 26.67483602 68.23811191 26.64743809 64.48782349 26.62062073 C57.38346934 26.57066823 50.2790926 26.5257389 43.17469418 26.48259836 C35.08771312 26.43324782 27.00077298 26.37832161 18.91383147 26.32291877 C2.27592534 26.20905947 -14.36201826 26.10222905 -31 26 C-25.53053373 20.4957729 -25.53053373 20.4957729 -22.87109375 18.45703125 C-22.03892334 17.81278198 -22.03892334 17.81278198 -21.18994141 17.15551758 C-20.61163574 16.71232178 -20.03333008 16.26912598 -19.4375 15.8125 C-12.82906738 10.68915793 -6.3889701 5.39435021 0 0 Z " fill="#FDDD55" transform="translate(59,471)"/>
<path d="M0 0 C0.99483398 0.22260498 0.99483398 0.22260498 2.00976562 0.44970703 C6.55860167 1.65526643 8.7620582 3.30141828 11.1875 7.3125 C11.33960938 8.16199219 11.49171875 9.01148438 11.6484375 9.88671875 C12.59468013 14.14481058 16.09082668 15.64422761 19.55078125 17.94921875 C22.89285033 19.67719224 25.47869198 19.45794345 29.1875 19.3125 C37.69136378 25.53483935 42.32542117 37.2802888 44.1875 47.3125 C45.99128568 64.71167734 42.75270949 81.46232249 31.7421875 95.41015625 C21.67508705 107.25692399 7.7365153 116.06470007 -8.05786133 117.51928711 C-10.41755078 117.61549387 -12.76343497 117.64102277 -15.125 117.625 C-15.95733154 117.62153564 -16.78966309 117.61807129 -17.6472168 117.61450195 C-26.32325224 117.46169837 -34.29636765 115.861738 -41.8125 111.3125 C-43.35836876 108.22076248 -43.10609521 105.71820448 -42.8125 102.3125 C-41.3125 99.8125 -41.3125 99.8125 -38.8125 98.3125 C-34.77826447 98.44263663 -31.85120899 98.9134564 -28.09765625 100.35546875 C-24.0077229 101.54694755 -20.35610268 101.56936234 -16.125 101.5 C-14.98708008 101.4990332 -14.98708008 101.4990332 -13.82617188 101.49804688 C-10.57350988 101.47220931 -7.91723714 101.34741238 -4.8125 100.3125 C-5.6375 99.52875 -6.4625 98.745 -7.3125 97.9375 C-9.8125 95.3125 -9.8125 95.3125 -9.8125 93.3125 C-10.4415625 93.37050781 -11.070625 93.42851562 -11.71875 93.48828125 C-17.49496113 93.79275021 -21.5266536 93.27382507 -26.3046875 89.87890625 C-27.8125 88.3125 -27.8125 88.3125 -29 84.6875 C-28.8125 81.3125 -28.8125 81.3125 -27.75 79.375 C-25.011884 77.87345252 -22.88405269 78.05109126 -19.8125 78.3125 C-18.8225 78.8075 -18.8225 78.8075 -17.8125 79.3125 C-16.19084248 79.43398305 -14.56365673 79.48793652 -12.9375 79.5 C-12.07382813 79.51417969 -11.21015625 79.52835937 -10.3203125 79.54296875 C-7.65174491 79.29772656 -6.06045361 78.7489726 -3.8125 77.3125 C-2.26663124 74.22076248 -2.51890479 71.71820448 -2.8125 68.3125 C-4.67958505 65.94752561 -6.13311431 64.65219285 -8.8125 63.3125 C-10.59815321 63.23740243 -12.38416046 63.16651695 -14.17089844 63.12451172 C-21.83519639 62.90258608 -28.58085116 62.26748245 -34.8125 57.3125 C-39.24790677 51.89012604 -40.25504908 45.96229922 -40.24609375 39.15625 C-39.63805553 35.16839572 -37.74629073 33.18533247 -35.140625 30.2265625 C-32.89609879 26.99180413 -33.55263322 24.14553506 -33.8125 20.3125 C-33.1525 19.3225 -32.4925 18.3325 -31.8125 17.3125 C-42.74788701 21.97016484 -50.64454386 29.61841254 -55.8125 40.3125 C-56.15152344 41.00730469 -56.49054688 41.70210937 -56.83984375 42.41796875 C-61.4090579 53.6409694 -59.31008109 66.43955986 -54.8125 77.3125 C-54.07482442 78.62338579 -53.30883871 79.919286 -52.5 81.1875 C-50.8125 84.3125 -50.8125 84.3125 -50.8125 88.0625 C-51.8125 91.3125 -51.8125 91.3125 -53.5 93.25 C-56.69278601 94.71695573 -58.33085768 95.00882846 -61.8125 94.3125 C-69.3897256 87.84028647 -73.70518177 76.09381099 -74.8125 66.3125 C-75.53594348 55.42461087 -75.4934835 45.37442716 -70.8125 35.3125 C-70.38839844 34.38179687 -69.96429688 33.45109375 -69.52734375 32.4921875 C-65.99697658 25.43145317 -61.3634123 19.88252043 -55.8125 14.3125 C-55.19761719 13.67441406 -54.58273438 13.03632813 -53.94921875 12.37890625 C-39.29104519 -1.71428418 -19.13524672 -4.50893093 0 0 Z " fill="#457F1B" transform="translate(267.8125,213.6875)"/>
<path d="M0 0 C6.34221723 4.82008509 8.30074027 11.02627683 10.71606445 18.35595703 C11.04987625 19.34527222 11.38368805 20.3345874 11.72761536 21.35388184 C12.82363441 24.61054393 13.90643237 27.87141822 14.98828125 31.1328125 C15.7467652 33.40168134 16.50573938 35.67038636 17.2651825 37.93893433 C18.8520956 42.68633253 20.4323408 47.43588576 22.00805664 52.18701172 C24.03034689 58.28252334 26.07022668 64.37197894 28.11523151 70.45990181 C29.68485093 75.13961773 31.24461394 79.82257273 32.8014431 84.50655746 C33.5498523 86.75394214 34.30147283 89.00025999 35.05632973 91.24548721 C36.10798077 94.37801322 37.14617067 97.51468548 38.1809082 100.65283203 C38.49614441 101.58279999 38.81138062 102.51276794 39.13616943 103.47091675 C39.41509537 104.32598816 39.6940213 105.18105957 39.98139954 106.06204224 C40.22785375 106.80274523 40.47430796 107.54344822 40.72823048 108.30659676 C41.1906022 110.71699152 41.02106456 112.09713041 40.125 114.375 C36.65972106 117.03477728 32.87153128 119.13569394 29.125 121.375 C28.99399902 120.62976074 28.86299805 119.88452148 28.72802734 119.11669922 C26.62902403 108.28967298 23.26783727 97.97396753 19.76464844 87.53222656 C18.74641162 84.48927631 17.74767186 81.44037093 16.75 78.390625 C16.09751896 76.42929962 15.44391235 74.46834825 14.7890625 72.5078125 C14.4961734 71.60870148 14.2032843 70.70959045 13.90151978 69.78323364 C11.28601475 62.07738103 8.12404851 54.97963718 1.125 50.375 C-1.9940549 49.33531503 -4.66743494 49.25579804 -7.93017578 49.18701172 C-20.94773821 48.84816556 -30.53890344 45.80086672 -39.875 36.375 C-40.7 35.611875 -41.525 34.84875 -42.375 34.0625 C-43.875 32.375 -43.875 32.375 -43.875 30.375 C-44.596875 30.08625 -45.31875 29.7975 -46.0625 29.5 C-47.79477546 28.80708982 -49.50978112 28.06618756 -51.1875 27.25 C-58.76156588 24.78402506 -65.46182523 27.18724685 -72.69177246 29.63748169 C-73.7587705 29.98851735 -74.82576854 30.33955301 -75.92509985 30.70122612 C-79.49235942 31.87813461 -83.05367352 33.07208044 -86.61523438 34.26611328 C-89.17450886 35.11449906 -91.73407636 35.96194939 -94.29402161 36.80830383 C-100.52080326 38.86948769 -106.74317687 40.94367601 -112.9640156 43.02271886 C-118.02200859 44.71292092 -123.08147365 46.39864281 -128.14201355 48.08120346 C-128.86298913 48.32092755 -129.58396471 48.56065164 -130.32678804 48.8076401 C-131.79158467 49.29467147 -133.25638355 49.78169606 -134.72118467 50.26871394 C-148.44989233 54.83390309 -162.17350818 59.41424423 -175.89552921 63.99948584 C-188.43955307 68.19062236 -200.98935325 72.36414247 -213.54207319 76.52915372 C-226.44190533 80.80948495 -239.33800175 85.10089078 -252.23005342 89.40460193 C-253.68935882 89.89171874 -255.14866981 90.37881881 -256.60798645 90.86590195 C-257.32593363 91.10553527 -258.04388081 91.34516859 -258.78358397 91.59206352 C-263.83300679 93.27664511 -268.88478085 94.95404701 -273.93754578 96.62857437 C-280.10007174 98.67105066 -286.25894237 100.72412669 -292.41341007 102.79076357 C-295.55118739 103.84410252 -298.69085262 104.89100214 -301.83403969 105.92810631 C-305.24691816 107.05510885 -308.65308903 108.20047662 -312.05822754 109.35061646 C-313.04500535 109.67165191 -314.03178317 109.99268736 -315.04846334 110.32345116 C-322.18207385 112.76552312 -328.5053888 115.85880274 -332.8125 122.25 C-334.09416892 126.01961447 -334.53325023 129.41070261 -334.875 133.375 C-340.80011231 131.18118098 -345.86936299 127.80259117 -351.1875 124.4375 C-352.21423828 123.80392578 -353.24097656 123.17035156 -354.29882812 122.51757812 C-355.75385742 121.5981543 -355.75385742 121.5981543 -357.23828125 120.66015625 C-358.12813721 120.10207275 -359.01799316 119.54398926 -359.93481445 118.96899414 C-360.8952063 118.17996704 -360.8952063 118.17996704 -361.875 117.375 C-361.875 116.385 -361.875 115.395 -361.875 114.375 C-348.66728791 109.91482549 -335.45887949 105.45671603 -322.25 101 C-321.26874271 100.66890606 -320.28748543 100.33781212 -319.27649307 99.99668503 C-292.97540813 91.12261352 -266.67078305 82.26076893 -240.31982422 73.53564453 C-228.69691721 69.68171602 -217.10234111 65.74948685 -205.51778603 61.78212166 C-183.09582491 54.10408117 -160.62599752 46.57357468 -138.13964844 39.08642578 C-132.87637298 37.33391976 -127.6140261 35.57864297 -122.35189915 33.82269192 C-103.25844204 27.45236844 -84.16689764 21.08811578 -64.97998047 15.00390625 C-56.93533815 12.44896688 -48.93733631 9.75374593 -40.9375 7.0625 C-7.92644498 -4.0392758 -7.92644498 -4.0392758 0 0 Z " fill="#A0DC73" transform="translate(418.875,122.625)"/>
<path d="M0 0 C3.63 1.98 7.26 3.96 11 6 C12.34534978 6.59679125 13.69069956 7.1935825 15.07681751 7.80845833 C23.92181693 12.200205 23.92181693 12.200205 25.78355575 17.03471518 C27.12728207 23.35876824 26.83265921 29.79859758 26.70385742 36.22607422 C26.71133404 38.39674625 26.72479605 40.56740465 26.74377441 42.73800659 C26.77653417 48.61966251 26.72091159 54.49740986 26.6456964 60.37855673 C26.57825141 66.5418942 26.58035214 72.70527991 26.5716095 78.868927 C26.5455228 89.2211798 26.46106113 99.57175483 26.34301758 109.92333984 C26.20753102 121.87601872 26.16879083 133.82608889 26.18107527 145.77946079 C26.19027657 157.29440527 26.12627866 168.80787832 26.03072548 180.32239151 C25.99166575 185.21472898 25.9788667 190.10608283 25.98760033 194.99856186 C25.99490135 200.76715805 25.93815466 206.5317294 25.83290863 212.29933548 C25.80460841 214.41021616 25.79808107 216.52152376 25.81546211 218.63252258 C25.93209401 235.36889799 25.93209401 235.36889799 21.18950844 240.60242081 C18.04484974 243.50184094 14.61172823 245.72136366 11 248 C9.03488783 249.51149121 7.14943254 251.09231441 5.25 252.6875 C1.13426854 256 1.13426854 256 0 256 C0 171.52 0 87.04 0 0 Z " fill="#FED322" transform="translate(16,231)"/>
<path d="M0 0 C6.93941295 2.97953118 10.817608 8.12486859 15 14.1875 C16.20927268 15.88920512 17.42019866 17.58973663 18.6328125 19.2890625 C19.49567871 20.50770996 19.49567871 20.50770996 20.37597656 21.75097656 C23.00798928 25.39591059 25.8506204 28.84310253 28.7421875 32.28515625 C30 34 30 34 30 36 C29.319375 35.979375 28.63875 35.95875 27.9375 35.9375 C16.65797837 36.17748982 8.24023405 41.55087875 -1.37109375 46.86328125 C-12.30780792 52.70083951 -12.30780792 52.70083951 -19 51 C-23.1465468 49.25322635 -27.06090069 47.1681597 -31 45 C-35.90664837 42.4338793 -40.43068478 41.08257404 -46 42 C-52.59192002 44.45800407 -57.71313764 48.71893739 -63.19921875 53.0390625 C-67.44024529 56.36831905 -71.77821563 59.5607351 -76.125 62.75 C-76.9303418 63.34143799 -77.73568359 63.93287598 -78.56542969 64.54223633 C-80.21801848 65.75553971 -81.87085237 66.96850932 -83.52392578 68.18115234 C-85.95512309 69.9670348 -88.38256376 71.75788712 -90.80859375 73.55078125 C-98.51015998 79.24125132 -106.22930288 84.90421417 -114 90.5 C-126.11555225 99.22627998 -138.13685657 108.07844581 -150.0625 117.0625 C-155.81312694 121.39053085 -161.607433 125.65456078 -167.4375 129.875 C-168.15881104 130.39843994 -168.88012207 130.92187988 -169.62329102 131.46118164 C-171.73969657 132.98757373 -173.86592284 134.49842303 -176 136 C-176.71639648 136.5053125 -177.43279297 137.010625 -178.17089844 137.53125 C-183.67272515 141.31390742 -189.37115134 144.34459971 -195.375 147.25 C-197.31720821 148.20540269 -199.25859983 149.162467 -201.19921875 150.12109375 C-202.16778809 150.5991748 -203.13635742 151.07725586 -204.13427734 151.56982422 C-208.51726897 153.75721261 -212.85607229 156.02504806 -217.1875 158.3125 C-217.96714111 158.72314697 -218.74678223 159.13379395 -219.55004883 159.55688477 C-222.90625749 161.33225743 -226.24815311 163.12574832 -229.5546875 164.9921875 C-230.54726562 165.55164063 -231.53984375 166.11109375 -232.5625 166.6875 C-233.38878906 167.16574219 -234.21507812 167.64398438 -235.06640625 168.13671875 C-235.70449219 168.42160156 -236.34257812 168.70648438 -237 169 C-237.66 168.67 -238.32 168.34 -239 168 C-237.83723958 167.14322917 -236.67447917 166.28645833 -235.51171875 165.4296875 C-234.37271118 164.59038696 -234.37271118 164.59038696 -233.21069336 163.73413086 C-231.50455743 162.47702151 -229.79833772 161.22002588 -228.09204102 159.96313477 C-223.77298324 156.7813986 -219.45500212 153.59823713 -215.140625 150.41015625 C-206.71719737 144.18873243 -198.26499179 138.01139689 -189.76708984 131.89208984 C-181.93122514 126.24281917 -174.16007146 120.50687108 -166.39111328 114.76611328 C-162.43008828 111.8404389 -158.46480201 108.92055249 -154.5 106 C-152.92056888 104.83594298 -151.3411418 103.67188048 -149.76171875 102.5078125 C-146.55736102 100.14656803 -143.35147783 97.78741454 -140.14453125 95.4296875 C-132.73980537 89.98363105 -125.34575634 84.52542234 -118 79 C-112.25229043 74.67661636 -106.47937796 70.38903879 -100.6875 66.125 C-99.89069824 65.53831543 -99.09389648 64.95163086 -98.27294922 64.34716797 C-94.28789972 61.41474278 -90.29984916 58.48647219 -86.30859375 55.5625 C-77.87063038 49.37313413 -69.49617972 43.11212594 -61.1875 36.75 C-54.4106376 31.56249946 -47.58458481 26.48544857 -40.60546875 21.57421875 C-37.78369975 19.57778293 -35.00742254 17.52581671 -32.23828125 15.45703125 C-31.40248535 14.83393066 -30.56668945 14.21083008 -29.70556641 13.56884766 C-28.07817796 12.35296096 -26.45392177 11.13286555 -24.83349609 9.90771484 C-8.93596708 -1.95019477 -8.93596708 -1.95019477 0 0 Z " fill="#5CA823" transform="translate(359,15)"/>
<path d="M0 0 C5.50604628 3.75412246 8.51732619 8.89784738 11.51953125 14.734375 C11.84539719 15.36482727 12.17126312 15.99527954 12.50700378 16.64483643 C13.1868755 17.96402377 13.86313815 19.285077 14.53588867 20.60791016 C15.56904082 22.63785142 16.61463877 24.6610099 17.66210938 26.68359375 C22.75 36.58481118 22.75 36.58481118 22.75 38.875 C21.945625 38.854375 21.14125 38.83375 20.3125 38.8125 C10.19156132 38.99006033 1.62313602 41.59561271 -7.859375 45.08007812 C-19.72492759 49.37435207 -19.72492759 49.37435207 -25.83984375 46.7734375 C-27.00193359 46.01933594 -27.00193359 46.01933594 -28.1875 45.25 C-29.03183594 44.70730469 -29.87617188 44.16460937 -30.74609375 43.60546875 C-33.78101068 41.50801446 -36.7483806 39.34450203 -39.65625 37.07421875 C-43.94734131 33.84538288 -48.84341008 33.79587222 -54.05895996 34.39709473 C-62.66440734 36.27409771 -70.69964157 41.60991217 -78.375 45.75 C-80.32163358 46.7758759 -82.26954475 47.79933133 -84.21875 48.8203125 C-89.00149696 51.33245302 -93.76850553 53.87287456 -98.53131104 56.4225769 C-102.74143423 58.67177872 -106.96323979 60.89858175 -111.1875 63.12109375 C-111.9632135 63.52925827 -112.738927 63.93742279 -113.53814697 64.35795593 C-120.38344988 67.95435319 -127.25176916 71.50515309 -134.13012695 75.0378418 C-137.65812676 76.84998415 -141.18435826 78.66556389 -144.7109375 80.48046875 C-145.42388977 80.84727753 -146.13684204 81.2140863 -146.87139893 81.5920105 C-153.56393058 85.03549011 -160.25362338 88.48443832 -166.94000244 91.93984985 C-168.66653891 92.83187914 -170.39355998 93.72297029 -172.12060547 94.61401367 C-173.74699951 95.4547644 -173.74699951 95.4547644 -175.40625 96.3125 C-177.06696533 97.16485229 -177.06696533 97.16485229 -178.76123047 98.03442383 C-181.19591825 99.31889627 -183.5798379 100.62817153 -185.96142578 102.00268555 C-198.40271834 109.07389483 -211.53579322 113.33984965 -225.125 117.6875 C-228.53643886 118.79534588 -231.94643615 119.90753936 -235.35623169 121.02043152 C-237.45754215 121.70451028 -239.56005821 122.38490222 -241.66403198 123.06074524 C-247.53431381 124.95192802 -253.31156843 126.98724994 -259.05740356 129.23100281 C-261.25 129.875 -261.25 129.875 -263.25 128.875 C-249.27918656 121.48055582 -235.23758575 114.23451229 -221.15673828 107.05224609 C-211.12502613 101.93333096 -201.11869179 96.77300513 -191.16003418 91.51324463 C-183.93435845 87.69964124 -176.67402938 83.95575284 -169.40332031 80.22888184 C-165.62184712 78.2903409 -161.84220668 76.34823239 -158.0625 74.40625 C-157.30936523 74.01934998 -156.55623047 73.63244995 -155.78027344 73.23382568 C-145.6676634 68.03679235 -135.57736229 62.79680783 -125.48730469 57.55615234 C-110.74720473 49.90152728 -96.00095604 42.25868279 -81.25 34.625 C-80.66150269 34.32043884 -80.07300537 34.01587769 -79.4666748 33.7020874 C-72.08500595 29.88279759 -64.69762657 26.07477317 -57.3046875 22.27734375 C-56.54713165 21.88802673 -55.78957581 21.49870972 -55.00906372 21.09759521 C-51.21237861 19.14675405 -47.41437476 17.19856491 -43.61376953 15.25537109 C-37.40946569 12.07874965 -31.22068813 8.89395603 -25.125 5.51171875 C-23.82393311 4.79592651 -23.82393311 4.79592651 -22.49658203 4.06567383 C-20.99346789 3.23179673 -19.4984241 2.3830594 -18.01513672 1.5144043 C-12.06303265 -1.77889562 -6.45456305 -2.23427183 0 0 Z " fill="#7BD13C" transform="translate(393.25,67.125)"/>
<path d="M0 0 C-0.32050798 2.33512959 -0.65596692 4.66822025 -1 7 C-1.0825 7.825 -1.165 8.65 -1.25 9.5 C-2.02956985 12.09856616 -2.85018403 13.08951453 -4.5625 15.125 C-7.49425459 19.04536951 -7.67301394 22.4127037 -7.40234375 27.21875 C-6.611982 32.68222152 -5.39673609 36.97199254 -1.0703125 40.6328125 C4.83347475 44.11147502 10.67469113 44.59868619 17.37792969 44.63671875 C21.7804924 44.69735414 24.50111664 45.28501947 28 48 C30.48038907 51.7205836 30.46337203 53.59796571 30 58 C28.13291495 60.36497439 26.67938569 61.66030715 24 63 C22.33555539 63.0955931 20.66718037 63.12984645 19 63.125 C18.113125 63.12757813 17.22625 63.13015625 16.3125 63.1328125 C14 63 14 63 12 62 C9 61.75 9 61.75 6 62 C3.61091246 63.92649205 3.61091246 63.92649205 3.9375 67.375 C4.6875 71.20833333 4.6875 71.20833333 7.9375 73.375 C11.06024136 74.92020742 13.79122964 75.24000067 17.25 75.4375 C19.83203125 75.59765625 19.83203125 75.59765625 22 76 C23.9375 78.375 23.9375 78.375 25 81 C26.58245275 82.75149165 26.58245275 82.75149165 28 84 C19.52197382 86.75925261 7.90439727 85.99502592 -0.2734375 82.6796875 C-2.64131952 81.74753485 -4.49770131 81.55841788 -7 82 C-8.81476003 83.39585785 -8.81476003 83.39585785 -10 85 C-15.32697239 83.54718935 -18.36402802 79.91888622 -22 76 C-21.50306641 75.10667969 -21.50306641 75.10667969 -20.99609375 74.1953125 C-19.44266142 70.77166949 -20.12043287 68.63554413 -21 65 C-21.77604198 63.33666526 -22.59172863 61.69148569 -23.4375 60.0625 C-28.57975124 50.13468547 -29.83373037 39.42497076 -27.125 28.45703125 C-23.08124189 17.11056524 -15.44068803 6.95672674 -4.91796875 0.77734375 C-3 0 -3 0 0 0 Z " fill="#46801B" transform="translate(236,231)"/>
<path d="M0 0 C0.99 0.495 0.99 0.495 2 1 C-5.85081122 7.14471621 -13.82696349 13.08452799 -21.92358398 18.90136719 C-29.86825773 24.61204215 -37.74007326 30.41934232 -45.60888672 36.23388672 C-49.56991162 39.15956103 -53.53515717 42.07950306 -57.5 45 C-59.08335379 46.1666389 -60.66668712 47.33330558 -62.25 48.5 C-97.08333333 74.16666667 -131.91666667 99.83333333 -166.75 125.5 C-167.53503906 126.07854736 -168.32007813 126.65709473 -169.12890625 127.25317383 C-170.69884187 128.40977281 -172.26914932 129.56586726 -173.83984375 130.72143555 C-178.00648535 133.78792084 -182.16470955 136.86508323 -186.3125 139.95703125 C-187.18068359 140.60220703 -188.04886719 141.24738281 -188.94335938 141.91210938 C-190.61370815 143.15370553 -192.28178253 144.39836895 -193.94726562 145.64648438 C-194.69685547 146.20271484 -195.44644531 146.75894531 -196.21875 147.33203125 C-197.2077832 148.07030151 -197.2077832 148.07030151 -198.21679688 148.82348633 C-200 150 -200 150 -203 151 C-205.34282452 149.76585956 -207.48292584 148.50753507 -209.6875 147.0625 C-210.29400391 146.67642578 -210.90050781 146.29035156 -211.52539062 145.89257812 C-213.02280265 144.93753581 -214.51219401 143.96993914 -216 143 C-215.70556641 141.13916016 -215.70556641 141.13916016 -215 139 C-212.4791892 137.29351288 -210.03798176 135.82342475 -207.375 134.375 C-205.80008379 133.48399387 -204.22719806 132.58939021 -202.65625 131.69140625 C-201.86605469 131.24039551 -201.07585937 130.78938477 -200.26171875 130.32470703 C-197.04737717 128.44204108 -193.95579308 126.40463188 -190.875 124.3125 C-184.56200238 120.03949536 -178.20135232 115.84639561 -171.8125 111.6875 C-170.82773682 111.04611084 -169.84297363 110.40472168 -168.82836914 109.74389648 C-165.88615011 107.82838554 -162.94321074 105.91398674 -160 104 C-159.12085938 103.42813965 -158.24171875 102.8562793 -157.3359375 102.26708984 C-152.37996172 99.04362165 -147.42267787 95.82217154 -142.46484375 92.6015625 C-139.94488954 90.9641913 -137.42549105 89.32596822 -134.90625 87.6875 C-127.17233001 82.6578617 -119.43590934 77.63229242 -111.6875 72.625 C-102.1011388 66.4282851 -92.54360883 60.18743645 -82.98486328 53.94824219 C-70.18741758 45.59525538 -57.38720236 37.24661791 -44.57104492 28.92236328 C-39.08406607 25.35754666 -33.60249577 21.78453309 -28.1237793 18.20703125 C-25.19729265 16.29717885 -22.26868334 14.3906164 -19.33984375 12.484375 C-16.05113681 10.34289141 -12.77176982 8.18876539 -9.50390625 6.015625 C-8.84825684 5.5834668 -8.19260742 5.15130859 -7.51708984 4.70605469 C-5.82448438 3.59029929 -4.13663533 2.4673374 -2.44921875 1.34375 C-1.64097656 0.9003125 -0.83273438 0.456875 0 0 Z " fill="#E7B900" transform="translate(239,75)"/>
<path d="M0 0 C10.06307511 10.14890091 13.29327504 24.62784539 13.31689453 38.36914062 C13.05902541 55.24205811 6.68784106 69.27633838 -5.0703125 81.265625 C-16.11250797 91.93363312 -31.11028403 97.41564415 -46.3125 97.3125 C-47.14483154 97.30903564 -47.97716309 97.30557129 -48.8347168 97.30200195 C-57.51075224 97.14919837 -65.48386765 95.549238 -73 91 C-74.54586876 87.90826248 -74.29359521 85.40570448 -74 82 C-72.5 79.5 -72.5 79.5 -70 78 C-65.95972748 78.13033137 -63.01684554 78.6192238 -59.24609375 80.03125 C-48.66835509 83.18802399 -35.88013101 81.54717894 -26 77 C-15.67474827 71.21840318 -8.4712529 62.99289145 -4.5 51.8125 C-1.44945165 40.35932518 -1.64205721 28.7329491 -7 18 C-7.92667948 16.41030951 -8.86384505 14.82667513 -9.8125 13.25 C-11.67095982 10.0493192 -11.99986841 9.00815852 -12.0625 5.125 C-11 2 -11 2 -9.375 0 C-5.60052898 -1.58925096 -3.88634452 -1.38327517 0 0 Z " fill="#010200" transform="translate(299,234)"/>
<path d="M0 0 C0.7233252 0.00088623 1.44665039 0.00177246 2.19189453 0.00268555 C7.58403581 0.11777242 12.64363268 0.89531373 17.875 2.1875 C18.54660156 2.35266113 19.21820313 2.51782227 19.91015625 2.68798828 C23.30547504 3.61820062 25.99362674 4.37270957 28 7.375 C28.71140218 10.83436747 28.58495415 14.20509169 27 17.375 C22.48306734 19.63346633 17.50128203 18.57525912 12.8125 17.375 C1.09635426 14.56716507 -9.79431395 16.27100665 -20.1875 22.125 C-29.96692109 28.36913741 -37.21612835 37.53507352 -40.52734375 48.77734375 C-42.67220559 60.56522082 -41.2024736 73.0348846 -34.6875 83.25 C-33 86.375 -33 86.375 -33 90.125 C-34 93.375 -34 93.375 -35.6875 95.3125 C-38.88028601 96.77945573 -40.51835768 97.07132846 -44 96.375 C-51.5772256 89.90278647 -55.89268177 78.15631099 -57 68.375 C-57.72344348 57.48711087 -57.6809835 47.43692716 -53 37.375 C-52.57589844 36.44429687 -52.15179688 35.51359375 -51.71484375 34.5546875 C-48.18447658 27.49395317 -43.5509123 21.94502043 -38 16.375 C-37.38511719 15.73691406 -36.77023438 15.09882813 -36.13671875 14.44140625 C-26.50748083 5.18331669 -13.2879667 -0.02987827 0 0 Z " fill="#010200" transform="translate(250,211.625)"/>
<path d="M0 0 C3.375 0.875 3.375 0.875 5.375 2.875 C5.375 3.865 5.375 4.855 5.375 5.875 C6.19484375 5.84019531 7.0146875 5.80539063 7.859375 5.76953125 C8.93703125 5.74246094 10.0146875 5.71539062 11.125 5.6875 C12.72601563 5.63529297 12.72601563 5.63529297 14.359375 5.58203125 C17.72003863 5.90852059 19.05328434 6.45354477 21.375 8.875 C22.10922919 14.74883352 22.10922919 14.74883352 20.27734375 17.55859375 C17.43450584 19.52581423 14.91886596 19.32546528 11.5 19.4375 C6.97575274 19.59599274 3.48780128 19.92806556 -0.625 21.875 C-0.93471097 25.2818207 -1.09822205 27.20600335 0.9140625 30.05078125 C4.20960417 32.4936669 7.06245931 32.33870124 11 32.3125 C18.99378022 32.55761365 25.41550524 33.84923755 31.2421875 39.7734375 C35.63546318 45.25977699 37.88717474 50.63534166 37.6953125 57.7890625 C36.95490031 62.61077116 34.69294549 66.6668833 31.125 69.9375 C28.98399968 71.87275574 28.98399968 71.87275574 29.375 75.375 C29.375 78.875 29.375 78.875 27.75 81.3125 C24.67638841 83.33461289 22.98574844 83.48959548 19.375 82.875 C17.5 81 17.5 81 16.375 78.875 C16.375 78.215 16.375 77.555 16.375 76.875 C15.7459375 76.93300781 15.116875 76.99101562 14.46875 77.05078125 C8.69253887 77.35525021 4.6608464 76.83632507 -0.1171875 73.44140625 C-1.625 71.875 -1.625 71.875 -2.8125 68.25 C-2.625 64.875 -2.625 64.875 -1.5625 62.9375 C1.175616 61.43595252 3.30344731 61.61359126 6.375 61.875 C7.035 62.205 7.695 62.535 8.375 62.875 C9.99665752 62.99648305 11.62384327 63.05043652 13.25 63.0625 C14.11367187 63.07667969 14.97734375 63.09085937 15.8671875 63.10546875 C18.53575509 62.86022656 20.12704639 62.3114726 22.375 60.875 C23.92086876 57.78326248 23.66859521 55.28070448 23.375 51.875 C21.50791495 49.51002561 20.05438569 48.21469285 17.375 46.875 C15.58934679 46.79990243 13.80333954 46.72901695 12.01660156 46.68701172 C4.35230361 46.46508608 -2.39335116 45.82998245 -8.625 40.875 C-13.06040677 35.45262604 -14.06754908 29.52479922 -14.05859375 22.71875 C-13.45011641 18.72801572 -11.5569225 16.74295642 -8.9453125 13.78515625 C-7.36779129 11.50288444 -7.32894563 10.35683894 -7.5 7.625 C-7.625 3.875 -7.625 3.875 -6.0625 1.3125 C-3.625 -0.125 -3.625 -0.125 0 0 Z " fill="#010300" transform="translate(241.625,230.125)"/>
<path d="M0 0 C5.9310578 2.09940617 10.11930557 6.47351755 13 12 C14.64322388 17.20530919 15.1545572 23.12853663 13.09375 28.25390625 C9.95063553 33.56294896 6.0857187 37.19999742 0.75 40.3125 C-5.26390804 41.81597701 -10.84723236 42.09412545 -16.3125 38.875 C-21.23606921 35.35390202 -25.49733377 31.01066493 -27 25 C-27.76138604 18.24123473 -27.25941705 12.49488332 -23 7 C-15.65241896 0.33490178 -9.91418353 -1.00999294 0 0 Z " fill="#010200" transform="translate(356,219)"/>
<path d="M0 0 C-17.49578517 12.26715972 -34.52009727 22.29209407 -56.4375 22.0625 C-57.26443359 22.05798828 -58.09136719 22.05347656 -58.94335938 22.04882812 C-60.96227146 22.03715811 -62.98114574 22.01922718 -65 22 C-63.59202228 19.18404455 -62.10559811 19.15794139 -59.14819336 18.16821289 C-58.11299057 17.81767349 -57.07778778 17.46713409 -56.01121521 17.10597229 C-54.88216263 16.731978 -53.75311005 16.3579837 -52.58984375 15.97265625 C-51.43384171 15.58307236 -50.27783966 15.19348846 -49.08680725 14.792099 C-45.37268008 13.54190018 -41.65524082 12.30190692 -37.9375 11.0625 C-34.24547348 9.82460363 -30.55415265 8.58463098 -26.86317444 7.34361267 C-24.56335046 6.57112161 -22.26279338 5.80080867 -19.96141052 5.03297424 C-18.90414261 4.67928268 -17.84687469 4.32559113 -16.75756836 3.96118164 C-15.27074051 3.4641423 -15.27074051 3.4641423 -13.75387573 2.95706177 C-11.27568808 2.09581061 -8.84997289 1.15557948 -6.41625977 0.17749023 C-3 -1 -3 -1 0 0 Z " fill="#9EDC71" transform="translate(313,332)"/>
<path d="M0 0 C3.10315235 1.195133 5.62424366 2.95257973 8.3125 4.890625 C6.19365255 7.19295252 4.20108268 8.6380767 1.41455078 10.04785156 C0.24655441 10.6442746 0.24655441 10.6442746 -0.94503784 11.25274658 C-1.78559723 11.67465271 -2.62615662 12.09655884 -3.4921875 12.53125 C-4.36714874 12.97652039 -5.24210999 13.42179077 -6.14358521 13.8805542 C-8.94713759 15.30607875 -11.75460789 16.72367052 -14.5625 18.140625 C-17.32697309 19.54123335 -20.09058484 20.94351779 -22.85357666 22.3470459 C-24.64392403 23.25623733 -26.43505387 24.16388968 -28.22698975 25.06994629 C-32.12694971 27.04789364 -36.00872337 29.04417318 -39.83691406 31.15820312 C-40.44552277 31.49422546 -41.05413147 31.8302478 -41.68118286 32.17645264 C-43.25586442 33.05423474 -44.82380489 33.94408056 -46.39111328 34.83496094 C-47.1489209 35.18333008 -47.90672852 35.53169922 -48.6875 35.890625 C-49.3475 35.560625 -50.0075 35.230625 -50.6875 34.890625 C-50.22601563 34.5596582 -49.76453125 34.22869141 -49.2890625 33.88769531 C-40.94865681 27.90024004 -32.63413281 21.88640718 -24.4375 15.703125 C-22.49514903 14.24702572 -20.55204604 12.79193435 -18.60888672 11.33691406 C-17.30713692 10.35704547 -16.0093887 9.37184216 -14.71533203 8.38183594 C-12.82018648 6.93346729 -10.91181942 5.50437478 -9 4.078125 C-8.15356934 3.41937378 -8.15356934 3.41937378 -7.29003906 2.74731445 C-4.7328474 0.86422822 -3.22531859 -0.13126297 0 0 Z " fill="#4A8A1C" transform="translate(318.6875,71.109375)"/>
<path d="M0 0 C2.510351 1.82475094 4.77212182 3.8427462 7 6 C4.10096917 7.93268722 1.78903806 8.86178722 -1.49365234 9.95532227 C-2.61847015 10.3323378 -3.74328796 10.70935333 -4.90219116 11.09779358 C-6.11782745 11.49993576 -7.33346375 11.90207794 -8.5859375 12.31640625 C-9.83500885 12.73292953 -11.0840802 13.14945282 -12.3710022 13.57859802 C-15.01463032 14.45977751 -17.6592635 15.33785022 -20.3046875 16.21362305 C-23.68790191 17.33381065 -27.06886942 18.46060478 -30.44914818 19.58961582 C-33.68120304 20.66835252 -36.91486086 21.74223947 -40.1484375 22.81640625 C-41.96581924 23.42265587 -41.96581924 23.42265587 -43.81991577 24.04115295 C-44.9510379 24.41501633 -46.08216003 24.7888797 -47.24755859 25.17407227 C-48.7362294 25.66799217 -48.7362294 25.66799217 -50.25497437 26.17189026 C-52.8260163 26.94751321 -55.35884121 27.52385788 -58 28 C-55.27258038 25.84979563 -52.58230337 24.17741569 -49.46484375 22.65234375 C-48.58199707 22.21672119 -47.69915039 21.78109863 -46.78955078 21.33227539 C-45.84837402 20.87199951 -44.90719727 20.41172363 -43.9375 19.9375 C-35.6759415 15.85601896 -27.4795532 11.67553102 -19.34350586 7.34936523 C-15.78278126 5.45751839 -12.21553577 3.58105041 -8.62109375 1.75390625 C-7.9861499 1.43107666 -7.35120605 1.10824707 -6.69702148 0.77563477 C-4.12929627 -0.39796083 -2.76656047 -0.70937448 0 0 Z " fill="#5AA622" transform="translate(346,116)"/>
<path d="M0 0 C3.96287721 0.38104589 5.4323945 1.57539752 8.25 4.3125 C9.6399408 7.0923816 9.43488204 9.2311326 9.25 12.3125 C8.04293121 15.65515205 7.32943151 16.25954566 4.25 18.3125 C-0.80760286 18.96509392 -0.80760286 18.96509392 -3.75 18.3125 C-7.03826203 15.43527073 -8.49931432 13.54085983 -9.375 9.25 C-8.54630875 5.35515113 -6.73053881 3.85686239 -3.75 1.3125 C-2.75 0.3125 -2.75 0.3125 0 0 Z " fill="#040702" transform="translate(378.75,82.6875)"/>
<path d="M0 0 C2.9375 2.0625 2.9375 2.0625 5 5 C5.69151325 9.30274909 5.51557405 11.20945312 3.125 14.875 C0.62545713 17.37454287 -0.32175958 17.90956794 -3.8125 18.375 C-7 18 -7 18 -9.8125 15.9375 C-12.43828382 12.41144744 -13.07836758 10.38858425 -13 6 C-9.43707664 0.34846639 -6.60567443 -0.6717635 0 0 Z " fill="#030501" transform="translate(352,34)"/>
<path d="M0 0 C4.63235294 2.26470588 4.63235294 2.26470588 6 5 C6.58394161 12.24087591 6.58394161 12.24087591 4.125 15.4375 C0.59275913 18.03473593 -1.59636677 18.5180745 -6 18 C-8.85801731 16.01181405 -10.61901083 14.52395669 -11.484375 11.0625 C-11.75726358 7.06013415 -11.24266331 5.3425835 -8.875 2 C-5.47539234 -0.36494446 -4.05412149 -0.67568691 0 0 Z " fill="#040503" transform="translate(403,137)"/>
<path d="M0 0 C5.28 0 10.56 0 16 0 C16 4.29 16 8.58 16 13 C14.10354148 11.57765611 12.20733314 10.15497723 10.3125 8.73046875 C8.77581566 7.58055124 7.23415191 6.4372569 5.6875 5.30078125 C4.965625 4.76839844 4.24375 4.23601562 3.5 3.6875 C2.8296875 3.19636719 2.159375 2.70523437 1.46875 2.19921875 C0.9840625 1.80347656 0.499375 1.40773438 0 1 C0 0.67 0 0.34 0 0 Z " fill="#F8CF24" transform="translate(480,474)"/>
<path d="M0 0 C1.33359073 6.42548263 1.33359073 6.42548263 -0.125 8.9375 C-2.63647631 10.36066991 -4.15503228 10.42674516 -7 10 C-8.875 8.9375 -8.875 8.9375 -10 7 C-9.8125 3.375 -9.8125 3.375 -9 0 C-5.93109813 -1.53445094 -3.29905734 -0.54984289 0 0 Z " fill="#437B1A" transform="translate(354,235)"/>
<path d="M0 0 C5.35020333 4.58588857 9.33060638 10.49183889 10.3828125 17.578125 C10.43325792 19.81213636 10.44824862 21.81065935 10 24 C9.34 24.66 8.68 25.32 8 26 C6.65909207 22.2318169 5.3285821 18.46004479 4 14.6875 C3.6184375 13.61564453 3.236875 12.54378906 2.84375 11.43945312 C2.30234375 9.89741211 2.30234375 9.89741211 1.75 8.32421875 C1.41484375 7.37635498 1.0796875 6.42849121 0.734375 5.4519043 C0 3 0 3 0 0 Z " fill="#74C639" transform="translate(465,201)"/>
<path d="M0 0 C3.82083397 3.52972281 6.75786371 7.52488367 9.75 11.75 C10.25660156 12.42804688 10.76320313 13.10609375 11.28515625 13.8046875 C14.79428699 18.77989712 15.57189127 21.92705939 15 28 C12.49708114 25.73845182 11.08004335 23.52387566 9.58984375 20.5078125 C9.15736328 19.63769531 8.72488281 18.76757812 8.27929688 17.87109375 C7.83650391 16.96488281 7.39371094 16.05867188 6.9375 15.125 C6.49083984 14.22652344 6.04417969 13.32804688 5.58398438 12.40234375 C3.56432972 8.3147318 1.65524965 4.25097136 0 0 Z " fill="#50931E" transform="translate(448,131)"/>
<path d="M0 0 C0.66 0.33 1.32 0.66 2 1 C-5.53440638 6.86927895 -13.10486131 12.61776098 -21 18 C-21 15 -21 15 -19.01171875 12.6484375 C-15.62134711 9.4624203 -11.75832928 7.0603444 -7.8125 4.625 C-6.72678711 3.93083984 -6.72678711 3.93083984 -5.61914062 3.22265625 C-4.92626953 2.79082031 -4.23339844 2.35898438 -3.51953125 1.9140625 C-2.89151611 1.5217041 -2.26350098 1.1293457 -1.61645508 0.72509766 C-1.0830249 0.48581543 -0.54959473 0.2465332 0 0 Z " fill="#D5AB00" transform="translate(239,75)"/>
<path d="M0 0 C0.66 0.33 1.32 0.66 2 1 C2 1.66 2 2.32 2 3 C0.23358317 3.6987693 -1.53832664 4.38366583 -3.3125 5.0625 C-4.79169922 5.63677734 -4.79169922 5.63677734 -6.30078125 6.22265625 C-9 7 -9 7 -12 6 C-10.04669132 4.96958487 -8.08718472 3.9509107 -6.125 2.9375 C-5.03445313 2.36902344 -3.94390625 1.80054688 -2.8203125 1.21484375 C-1.42425781 0.61349609 -1.42425781 0.61349609 0 0 Z " fill="#4C8B1D" transform="translate(300,137)"/>
<path d="M0 0 C0.66 0.33 1.32 0.66 2 1 C-1.42388092 4.82669043 -4.00724943 6.72278474 -9 8 C-6.14723863 5.06799526 -3.34920216 2.35684596 0 0 Z " fill="#4F911E" transform="translate(129,176)"/>
<path d="M0 0 C0.66 0.33 1.32 0.66 2 1 C2 1.66 2 2.32 2 3 C0.71349294 3.69710731 -0.57940665 4.38242876 -1.875 5.0625 C-2.95394531 5.63677734 -2.95394531 5.63677734 -4.0546875 6.22265625 C-4.69664062 6.47917969 -5.33859375 6.73570313 -6 7 C-6.66 6.67 -7.32 6.34 -8 6 C-5.36 4.02 -2.72 2.04 0 0 Z " fill="#3F7418" transform="translate(276,100)"/>
<path d="M0 0 C0.66 0.33 1.32 0.66 2 1 C-0.64 2.98 -3.28 4.96 -6 7 C-6.66 6.34 -7.32 5.68 -8 5 C-6.71475739 4.13619741 -5.42157581 3.28419631 -4.125 2.4375 C-3.04605469 1.72400391 -3.04605469 1.72400391 -1.9453125 0.99609375 C-1.30335938 0.66738281 -0.66140625 0.33867188 0 0 Z " fill="#BA9500" transform="translate(239,75)"/>
</svg>
